<svg width="81" height="40" fill="none" xmlns="http://www.w3.org/2000/svg"><path d="M79.23 17.95c-.703-.692-1.647-1.092-2.75-.91-2.23.371-4.094 2.255-5.662 3.749-.118.113-.242.227-.36.346-.446.42-1.558 1.112-.144-2.186 1.414-3.298 1.844-3.748 1.844-3.748s-2.561-1.494-3.441.163c-.366.697-.876 2.037-1.296 3.417-.01 0-.015.01-.02.025-.108.563-.608 1.325-.885 1.651-.336.396-.326.386-.865.86-.153.134-.42.367-.5.1-.064-.233.035-.524.094-.742.158-.554.381-1.093.608-1.622.955-2.235 1.519-3.269 1.756-3.664a.25.25 0 0 0-.084-.341c-.559-.347-2.092-1.143-2.715.084-.45.895-1.671 3.16-2.215 5.118l-1.583 1.27s-.766.658.312-2.13c.83-2.152 1.577-3.472 1.874-3.962a.232.232 0 0 0-.104-.33c-.707-.322-2.779-1.104-3.352.43-.228.612-.693 1.78-1.128 3.055l-1.884.223a276.407 276.407 0 0 1 1.38-3.501.217.217 0 0 0-.08-.267c-.543-.371-2.462-1.504-3.214.331-.376.92-.94 2.354-1.459 3.689-.034.044-.865 1.103-1.893 1.296.089-.183.173-.366.257-.564.994-2.349 1.434-4.59.123-4.812a5.174 5.174 0 0 0-.474-.054c.193-.311.573-1.142-.965-.925-1.884.267-4.252 1.489-4.99 4.09a16.779 16.779 0 0 0-.395 1.726l-1.637 1.607s-.86.93-.123-1.38 1.365-4.149 1.365-4.149.48-1.038-.767-1.34c-1.241-.302-1.365-.178-1.899.737-.415.717-1.632 2.774-2.136 3.63-.035.059-.123.02-.104-.045l.905-3.229s.257-.791-.49-1.039c-.751-.247-1.433-.326-1.72.396-.287.722-1.148 2.458-2.117 3.768-.914 1.236-1.453 2.35-2.21 1.256l-.055-.119c-.514-.964-.92-.984-2.333.698-.965 1.147-2.008 1.627-2.572 1.815-.37.123-.786.059-1.083-.188-.198-.163-.36-.42-.36-.806 0-.965-.15-.811 1.492-1.662 1.563-.816 2.107-1.38 2.483-1.874.36-.48.415-1.192.306-1.815-.133-.761-.687-1.652-2.645-1.652-1.74 0-2.918.995-3.66 1.988-.77 1.034-1.196 2.28-1.305 3.57-.01.11-.015.223-.02.337-.059.025-.123.05-.188.084-1.735.846-2.976-.574 1.637-11.63 1.588-3.808 2.715-5.766 2.76-7.042.093-2.69-2.705-1.42-2.705-1.42s-2.948.708-11.631 12.066c-8.669 11.35-13.203 9-13.203 9S.639 25.72 5.268 25.72c4.94 0 13.227-14.212 17.05-19.182 2.675-3.481 3.817-3.852 4.04-3.333.104.233-.084.668-.203.89-.954 1.77-6.656 12.501-7.457 16.952-.781 4.332 4.43 1.73 5.588 1.157.06-.03.138-.064.217-.104.267 1.014.92 1.845 2.334 1.845 1.642 0 3.17-.683 4.362-1.434 0 .618.188 1.23.91 1.23 1.459 0 2.497-.696 3.442-2.373.519-.924.87-1.459 1.087-1.755.04-.055.124-.01.1.054-.416 1.058-1.578 3.897-.668 4.04 1.384.223 2.527-.05 3.333-1.592.564-1.088 1.196-2.23 1.518-2.814.035-.059.123-.024.109.045-.252 1.033-.727 3.669-.337 4.178.505.663 1.509.945 3.749-1.488.158-.173.306-.336.44-.5.015 1.34.445 2.35 1.661 2.35 1.563 0 2.947-.644 4.05-2.073.371.05.826.055 1.251-.108.198-.075.406-.164.609-.258-.238.614-.386 1.004-.386 1.004s-.737 1.637.88 1.474c1.617-.163 1.968-.109 2.314-1.187.119-.366.465-1.3.886-2.388l2.022-.327c-.628 2.156-.9 4.154.396 3.907 1.27-.242 2.714-1.133 3.778-1.9.024.57.202 1.024.603 1.287 1.656 1.073 2.7-.035 3.738-1.281-.054.544-.025.95.124 1.132.653.801 1.894 1.701 5.326-1.854 3.837-3.98 6.63-3.012 6.008-.415-.005.02-.015.034-.02.054-.109.306-.218.588-.331.84a6.21 6.21 0 0 1-1.776 2.31c-1.844 1.488-6.285 4.282-14.231 5.034-10.978 1.038-19.167.544-29.705-.658-10.538-1.201-22.227-2.566-25.61 1.805-3.387 4.367.984 9.771 9.722 9.717 7.991-.05 14.795-8.184 15.898-9.573a.385.385 0 0 1 .406-.134c1.275.341 2.561.648 3.847.954a245.08 245.08 0 0 0 7.081 1.578c2.809.583 5.632 1.117 8.47 1.567 2.656.42 5.331.777 8.017.92.326.02.647.03.974.035 8.767.445 15.334-2.483 18.741-9.213 2.354-4.668.806-7.11-.395-8.184zm-49.737-1.572c.282-.282.781-.371 1.088-.163.272.183.36.692.099.895-.475.366-1.998 1.073-2.122 1.127-.78.371.737-1.666.935-1.86zm21.679 1.102c-.46 1.746-1.597 4.456-2.898 4.604-1.335.149.054-3.229 1.053-4.821.564-.83 1.795-1.835 1.89-1.192a3.964 3.964 0 0 1-.045 1.41zM15.098 35.17c-10.854.737-6.572-3.25-1.449-4.916 5.296-1.72 14.578-.82 14.578-.82s-2.275 4.999-13.129 5.736z" fill="#8F5541"/><path d="M38.775 5.598h.48l-1.247 1.394 1.345 1.494h-.509l-1.315-1.464v1.464h-.44V5.598h.44v1.404l1.246-1.404zm3.605 1.439c0 .47-.119.835-.356 1.102-.238.267-.564.396-.985.396-.257 0-.489-.06-.687-.183a1.191 1.191 0 0 1-.465-.52 1.816 1.816 0 0 1-.163-.795c0-.47.119-.836.351-1.098.238-.262.564-.39.98-.39.405 0 .726.133.964.4.247.267.36.633.36 1.088zm-2.196 0c0 .37.074.648.223.845.148.193.366.287.652.287.287 0 .505-.094.653-.287.148-.193.223-.474.223-.845 0-.366-.075-.648-.223-.836-.148-.188-.37-.287-.658-.287-.286 0-.5.094-.647.282-.154.188-.223.47-.223.84zm3.402-1.439v1.206h1.617V5.598h.44v2.888h-.44v-1.3h-1.617v1.3h-.435V5.598h.435zm5.489 3.886h-.425v-.998h-2.018v.998h-.42V8.11h.227c.238-.322.42-.697.554-1.128.134-.43.203-.89.208-1.384h1.464V8.11h.41v1.374zM48.24 8.11V5.944h-.647c-.02.39-.1.786-.228 1.182a3.44 3.44 0 0 1-.474.984h1.35zm1.824-2.512v1.83l-.02.479-.005.153 1.558-2.462h.549v2.888h-.41V6.72l.01-.35.014-.342-1.562 2.458h-.544V5.598h.41zm4.955.371h-.94v2.517h-.435V5.969h-.93v-.371h2.305v.37zM56.81 8.54c-.426 0-.762-.129-1.01-.39-.247-.263-.37-.624-.37-1.084 0-.464.113-.835.346-1.107.227-.277.539-.41.924-.41.361 0 .648.118.86.355.213.238.317.554.317.94v.277H55.89c.01.341.094.598.258.771.163.178.39.262.687.262.311 0 .618-.064.92-.193v.391a2.526 2.526 0 0 1-.44.143c-.144.03-.307.045-.505.045zm-.12-2.63c-.232 0-.415.073-.553.227-.139.148-.218.36-.243.628h1.509c0-.277-.065-.485-.184-.633-.123-.149-.296-.223-.529-.223zm3.27 2.625c-.189 0-.362-.035-.515-.104a.978.978 0 0 1-.39-.321h-.03c.02.168.03.326.03.48v1.186h-.436V5.593h.356l.06.395h.02a.991.991 0 0 1 .395-.34c.148-.07.321-.105.514-.105.38 0 .678.129.885.391.208.262.312.628.312 1.103 0 .474-.104.84-.317 1.102-.212.267-.51.396-.885.396zm-.06-2.62c-.297 0-.51.083-.643.246-.129.164-.198.426-.203.782v.099c0 .405.07.697.203.87.138.173.351.262.653.262a.683.683 0 0 0 .588-.302c.144-.202.213-.48.213-.835 0-.361-.07-.633-.213-.831a.71.71 0 0 0-.598-.292zm3.18 2.62c-.416 0-.742-.129-.97-.386-.232-.257-.346-.623-.346-1.092 0-.485.114-.856.351-1.118.232-.262.564-.396.994-.396a1.946 1.946 0 0 1 .742.149l-.134.37a2.645 2.645 0 0 0-.316-.098 1.412 1.412 0 0 0-.302-.035c-.583 0-.88.37-.88 1.123 0 .356.07.628.213.815.143.188.356.287.637.287.243 0 .49-.05.742-.153v.386c-.198.099-.44.148-.732.148zm3.095-2.937h.48l-1.246 1.394 1.35 1.494h-.51l-1.32-1.464v1.464h-.435V5.598h.435v1.404l1.246-1.404zm2.893 2.888l-.09-.41h-.02a1.181 1.181 0 0 1-.43.365 1.308 1.308 0 0 1-.533.094c-.287 0-.51-.074-.673-.222-.163-.149-.242-.357-.242-.628 0-.584.465-.89 1.4-.915l.489-.015v-.178c0-.228-.05-.396-.144-.5-.099-.108-.252-.163-.47-.163-.242 0-.514.074-.815.223l-.134-.337c.144-.079.297-.138.47-.182a1.97 1.97 0 0 1 .51-.065c.346 0 .598.08.766.228.168.153.247.4.247.737v1.968h-.331zm-.99-.312c.273 0 .485-.074.644-.222.153-.149.232-.356.232-.628V7.06l-.435.02c-.346.01-.599.07-.752.163-.153.094-.227.248-.227.445 0 .159.05.277.143.361.09.085.223.124.396.124zm2.36.312h-.51l.83-1.222a.91.91 0 0 1-.513-.287.81.81 0 0 1-.178-.534c0-.262.089-.47.267-.623.178-.148.425-.227.741-.227h1.286V8.48h-.435V7.328h-.732l-.757 1.158zm.054-2.033c0 .332.242.5.727.5h.702v-.975h-.791c-.425 0-.638.159-.638.475z" fill="#8F5541"/></svg>