<svg width="80" height="40" fill="none" xmlns="http://www.w3.org/2000/svg"><path d="M78.232 17.939c-.703-.693-1.647-1.093-2.75-.91-2.23.37-4.094 2.255-5.662 3.748-.118.114-.242.228-.36.346-.446.42-1.558 1.113-.144-2.185 1.414-3.299 1.844-3.749 1.844-3.749s-2.561-1.493-3.441.163c-.366.698-.876 2.038-1.296 3.418-.01 0-.015.01-.02.024-.109.564-.608 1.325-.885 1.652-.336.395-.326.385-.865.86-.154.134-.42.366-.5.1-.064-.233.035-.525.094-.743.158-.553.38-1.092.608-1.622.955-2.235 1.519-3.268 1.756-3.664a.25.25 0 0 0-.084-.341c-.559-.346-2.092-1.142-2.715.084-.45.895-1.671 3.16-2.215 5.118l-1.583 1.271s-.766.658.312-2.131c.83-2.151 1.577-3.472 1.874-3.961a.232.232 0 0 0-.104-.332c-.707-.321-2.779-1.102-3.353.43-.227.614-.692 1.78-1.127 3.057l-1.884.222a275.582 275.582 0 0 1 1.38-3.5.218.218 0 0 0-.08-.268c-.543-.37-2.462-1.503-3.214.331-.376.92-.94 2.354-1.459 3.69-.034.044-.865 1.102-1.894 1.295.09-.183.173-.366.258-.564.994-2.349 1.434-4.589.123-4.811a5.174 5.174 0 0 0-.474-.055c.192-.311.573-1.142-.965-.924-1.884.267-4.252 1.488-4.99 4.09a16.779 16.779 0 0 0-.395 1.725l-1.637 1.607s-.86.93-.123-1.38c.736-2.309 1.365-4.148 1.365-4.148s.48-1.039-.767-1.34c-1.241-.302-1.365-.178-1.899.736-.415.717-1.632 2.774-2.136 3.63-.035.06-.124.02-.104-.045l.905-3.229s.257-.79-.49-1.038c-.751-.247-1.434-.326-1.72.396-.287.721-1.148 2.457-2.117 3.768-.915 1.236-1.454 2.348-2.21 1.256l-.055-.12c-.514-.963-.92-.983-2.334.698-.964 1.147-2.007 1.627-2.571 1.815-.37.124-.786.06-1.083-.188-.198-.163-.361-.42-.361-.806 0-.964-.148-.81 1.493-1.662 1.563-.815 2.107-1.38 2.483-1.874.36-.48.415-1.191.306-1.814-.133-.762-.687-1.652-2.645-1.652-1.74 0-2.918.994-3.66 1.988-.77 1.033-1.196 2.28-1.305 3.57-.01.109-.015.223-.02.336-.06.025-.123.05-.188.084-1.735.846-2.977-.573 1.637-11.63 1.587-3.808 2.715-5.766 2.76-7.042C27.639-.97 24.84.3 24.84.3s-2.947.707-11.63 12.066c-8.669 11.349-13.203 9-13.203 9s-.366 4.341 4.262 4.341c4.94 0 13.228-14.212 17.05-19.181 2.676-3.482 3.818-3.852 4.04-3.333.105.232-.083.667-.202.89-.954 1.77-6.656 12.5-7.457 16.951-.781 4.332 4.43 1.731 5.588 1.157.06-.03.138-.064.217-.103.267 1.013.92 1.844 2.334 1.844 1.642 0 3.17-.682 4.362-1.434 0 .618.188 1.231.91 1.231 1.459 0 2.497-.697 3.442-2.373.519-.925.87-1.46 1.087-1.756.04-.054.124-.01.1.055-.416 1.058-1.578 3.896-.668 4.04 1.384.222 2.527-.05 3.333-1.593.563-1.087 1.196-2.23 1.518-2.813.034-.06.123-.025.108.044-.252 1.034-.726 3.67-.336 4.179.505.662 1.508.944 3.749-1.489.158-.173.306-.336.44-.5.014 1.34.445 2.35 1.661 2.35 1.563 0 2.947-.643 4.05-2.072.371.05.826.054 1.251-.109.198-.074.406-.163.609-.257-.238.613-.386 1.004-.386 1.004s-.737 1.637.88 1.473c1.617-.163 1.968-.108 2.314-1.186a65.16 65.16 0 0 1 .885-2.389l2.023-.326c-.628 2.156-.9 4.154.395 3.906 1.271-.242 2.715-1.132 3.778-1.899.025.569.203 1.024.604 1.286 1.656 1.073 2.7-.035 3.738-1.28-.054.543-.025.949.124 1.132.653.8 1.894 1.7 5.325-1.855 3.838-3.98 6.632-3.011 6.009-.415-.005.02-.015.035-.02.054-.109.307-.218.589-.331.841a6.21 6.21 0 0 1-1.776 2.31c-1.844 1.488-6.285 4.282-14.231 5.033-10.978 1.039-19.167.544-29.705-.657-10.538-1.202-22.228-2.567-25.61 1.805-3.387 4.366.984 9.77 9.722 9.716 7.991-.049 14.795-8.183 15.898-9.573a.385.385 0 0 1 .405-.134c1.276.342 2.562.648 3.848.955a245 245 0 0 0 7.08 1.577 180.59 180.59 0 0 0 8.472 1.568c2.655.42 5.33.776 8.015.92.327.02.648.03.975.034 8.767.445 15.334-2.482 18.741-9.212 2.354-4.668.806-7.111-.395-8.184zm-49.737-1.573c.282-.282.781-.37 1.088-.163.272.183.36.692.099.895-.475.366-1.998 1.073-2.122 1.128-.781.37.737-1.667.935-1.86zm21.679 1.103c-.46 1.745-1.597 4.455-2.898 4.604-1.335.148.054-3.23 1.053-4.822.564-.83 1.795-1.834 1.89-1.191a3.964 3.964 0 0 1-.045 1.409zM14.1 35.157c-10.854.737-6.572-3.249-1.449-4.915 5.296-1.721 14.578-.821 14.578-.821s-2.275 5-13.129 5.736z" fill="#fff"/><path d="M37.777 5.586h.48L37.01 6.98l1.345 1.494h-.51L36.532 7.01v1.464h-.44V5.586h.44V6.99l1.246-1.404zm3.605 1.439c0 .47-.12.836-.356 1.103-.238.267-.564.395-.985.395a1.27 1.27 0 0 1-.687-.183 1.19 1.19 0 0 1-.465-.519 1.816 1.816 0 0 1-.163-.796c0-.47.119-.836.351-1.098.238-.262.564-.39.98-.39.405 0 .726.133.963.4.248.267.361.633.361 1.088zm-2.196 0c0 .37.074.648.222.846.149.193.366.286.653.286.287 0 .505-.093.653-.286.148-.193.223-.475.223-.846 0-.366-.075-.648-.223-.836-.148-.188-.37-.286-.658-.286-.286 0-.5.094-.648.281-.153.188-.222.47-.222.841zm3.402-1.439v1.207h1.617V5.586h.44v2.888h-.44v-1.3h-1.617v1.3h-.435V5.586h.435zm5.489 3.887h-.425v-1h-2.018v1h-.42V8.098h.227a3.74 3.74 0 0 0 .554-1.127c.134-.43.203-.89.208-1.385h1.464v2.512h.41v1.375zm-.836-1.375V5.932h-.647c-.02.39-.1.786-.228 1.182-.129.4-.287.727-.475.984h1.35zm1.825-2.512v1.83l-.02.48-.005.153L50.6 5.586h.549v2.888h-.41V6.708l.01-.35.014-.342L49.2 8.474h-.544V5.586h.41zm4.954.371h-.939v2.517h-.435V5.957h-.93v-.371h2.305v.37zm1.791 2.571c-.425 0-.761-.128-1.009-.39-.247-.262-.37-.623-.37-1.083 0-.465.113-.836.346-1.108.227-.277.538-.41.924-.41.361 0 .648.118.86.356.213.237.317.554.317.94v.276h-1.988c.01.341.094.598.257.772.163.178.391.262.688.262.311 0 .618-.065.92-.193v.39a2.526 2.526 0 0 1-.44.144 2.47 2.47 0 0 1-.505.044zm-.119-2.63c-.232 0-.415.074-.553.227-.139.148-.218.361-.243.628h1.508c0-.277-.064-.485-.183-.633-.123-.148-.296-.222-.529-.222zm3.269 2.625c-.188 0-.361-.034-.514-.103a.978.978 0 0 1-.39-.322h-.03c.02.168.03.327.03.48v1.187h-.436V5.58h.356l.06.396h.02a.991.991 0 0 1 .395-.341c.148-.07.321-.104.514-.104.38 0 .677.128.885.39.208.262.312.628.312 1.103s-.104.84-.317 1.103c-.212.267-.51.395-.885.395zm-.06-2.62c-.296 0-.509.084-.642.247-.129.163-.198.425-.203.781v.1c0 .405.07.696.203.87.138.172.35.261.652.261a.683.683 0 0 0 .589-.301c.143-.203.213-.48.213-.836 0-.36-.07-.633-.213-.83a.71.71 0 0 0-.598-.292zm3.18 2.62c-.415 0-.742-.128-.969-.385-.232-.257-.346-.623-.346-1.093 0-.485.114-.856.351-1.118.232-.262.564-.395.994-.395.138 0 .277.015.415.044.139.03.247.065.327.104l-.134.371a2.645 2.645 0 0 0-.316-.099 1.412 1.412 0 0 0-.302-.035c-.584 0-.88.371-.88 1.123 0 .356.069.628.212.816.144.188.356.287.638.287.243 0 .49-.05.742-.154v.386c-.198.099-.44.148-.732.148zm3.096-2.937h.48L64.41 6.98l1.35 1.494h-.509l-1.32-1.464v1.464h-.435V5.586h.435V6.99l1.246-1.404zm2.893 2.888l-.09-.41h-.02a1.181 1.181 0 0 1-.43.365 1.308 1.308 0 0 1-.534.094c-.286 0-.509-.074-.672-.222-.163-.149-.242-.356-.242-.628 0-.584.465-.89 1.4-.915l.489-.015v-.178c0-.227-.05-.395-.144-.5-.099-.108-.252-.163-.47-.163-.242 0-.514.075-.815.223l-.134-.336c.144-.08.297-.139.47-.183a1.97 1.97 0 0 1 .51-.064c.345 0 .597.079.766.227.168.153.247.4.247.737v1.968h-.331zm-.99-.312c.273 0 .485-.074.644-.222.153-.149.232-.356.232-.628V7.05l-.435.02c-.346.01-.599.069-.752.163-.153.094-.227.247-.227.445 0 .158.05.277.143.36.089.085.222.124.396.124zm2.36.312h-.51l.83-1.222a.91.91 0 0 1-.514-.286.81.81 0 0 1-.177-.534c0-.262.088-.47.266-.623.179-.149.426-.228.742-.228h1.286v2.888h-.435V7.317h-.732l-.757 1.157zm.054-2.033c0 .332.242.5.727.5h.702v-.974h-.791c-.426 0-.638.158-.638.474z" fill="#fff"/></svg>