<svg width="16" height="16" fill="none" xmlns="http://www.w3.org/2000/svg"><path d="M9.43.06c-3.59 0-6.51 2.92-6.51 6.51 0 1.29.38 2.5 1.03 3.51L.2 13.83a.47.47 0 0 0-.14.33c0 .12.05.24.14.33l1.32 1.32c.09.09.21.14.33.14.12 0 .24-.05.33-.14l3.75-3.75c1.01.65 2.22 1.03 3.51 1.03 3.59 0 6.51-2.92 6.51-6.51S13.02.06 9.43.06zM1.85 14.82l-.66-.66 2-2 .66.66-2 2zm2.66-2.66l-.66-.66.66-.66c.2.23.42.45.66.66l-.66.66zm4.92 0c-3.08 0-5.58-2.5-5.58-5.58S6.35 1 9.43 1s5.58 2.5 5.58 5.58-2.5 5.58-5.58 5.58z" fill="#000"/></svg>