<svg width="16" height="15" fill="none" xmlns="http://www.w3.org/2000/svg"><path d="M5.18 9.36h8.44c.21 0 .39-.14.45-.34l1.86-6.51c.04-.14.01-.29-.08-.41a.47.47 0 0 0-.37-.19H4.1L3.77.41a.469.469 0 0 0-.45-.36H.53a.47.47 0 1 0 0 .94h2.42c.06.27 1.59 7.16 1.68 7.56a1.4 1.4 0 0 0-.84 1.28c0 .77.63 1.4 1.4 1.4h8.43a.47.47 0 1 0 0-.94H5.19a.47.47 0 0 1-.47-.47c-.01-.25.2-.46.46-.46zm9.68-6.52l-1.59 5.58H5.56L4.32 2.84h10.54z" fill="#000"/><path d="M4.71 12.61c0 .77.63 1.4 1.4 1.4.77 0 1.4-.63 1.4-1.4 0-.77-.63-1.4-1.4-1.4-.77.01-1.4.63-1.4 1.4zm1.4-.46a.47.47 0 1 1 .001.939.47.47 0 0 1-.001-.939zm5.18.46c0 .77.63 1.4 1.4 1.4.77 0 1.4-.63 1.4-1.4 0-.77-.63-1.4-1.4-1.4-.78.01-1.4.63-1.4 1.4zm1.39-.46a.47.47 0 1 1 .001.939.47.47 0 0 1-.001-.939z" fill="#000"/></svg>