<svg width="11" height="11" viewBox="0 0 11 11" fill="none" xmlns="http://www.w3.org/2000/svg">
<path fill-rule="evenodd" clip-rule="evenodd" d="M2.12138 0.7072C1.73086 0.316676 1.0977 0.316675 0.707171 0.7072C0.316647 1.09772 0.316647 1.73089 0.707171 2.12141L4.29291 5.70715L0.707078 9.29299C0.316553 9.68351 0.316553 10.3167 0.707078 10.7072C1.0976 11.0977 1.73077 11.0977 2.12129 10.7072L5.70712 7.12137L9.19245 10.6067C9.58298 10.9972 10.2161 10.9972 10.6067 10.6067C10.9972 10.2162 10.9972 9.583 10.6067 9.19248L7.12134 5.70715L10.6066 2.22192C10.9971 1.83139 10.9971 1.19823 10.6066 0.807705C10.216 0.417181 9.58288 0.417181 9.19236 0.807706L5.70712 4.29294L2.12138 0.7072Z" fill="black"/>
</svg>
