<svg width="16" height="15" viewBox="0 0 16 15" fill="none" xmlns="http://www.w3.org/2000/svg">
<path d="M5.18006 9.36005H13.6201C13.8301 9.36005 14.0101 9.22005 14.0701 9.02005L15.9301 2.51005C15.9701 2.37005 15.9401 2.22005 15.8501 2.10005C15.7601 1.98005 15.6201 1.91005 15.4801 1.91005H4.10006L3.77006 0.410048C3.72006 0.200048 3.53006 0.0500488 3.32006 0.0500488H0.530059C0.270059 0.0500488 0.0600586 0.260049 0.0600586 0.520049C0.0600586 0.780049 0.270059 0.990048 0.530059 0.990048H2.95006C3.01006 1.26005 4.54006 8.15005 4.63006 8.55005C4.14006 8.76005 3.79006 9.26005 3.79006 9.83005C3.79006 10.6 4.42006 11.23 5.19006 11.23H13.6201C13.8801 11.23 14.0901 11.02 14.0901 10.76C14.0901 10.5 13.8801 10.29 13.6201 10.29H5.19006C4.93006 10.29 4.72006 10.08 4.72006 9.82005C4.71006 9.57005 4.92006 9.36005 5.18006 9.36005ZM14.8601 2.84005L13.2701 8.42005H5.56006L4.32006 2.84005H14.8601Z" fill="black"/>
<path d="M4.70996 12.61C4.70996 13.38 5.33996 14.01 6.10996 14.01C6.87996 14.01 7.50996 13.38 7.50996 12.61C7.50996 11.84 6.87996 11.21 6.10996 11.21C5.33996 11.22 4.70996 11.84 4.70996 12.61ZM6.10996 12.15C6.36996 12.15 6.57996 12.36 6.57996 12.62C6.57996 12.88 6.36996 13.09 6.10996 13.09C5.84996 13.09 5.63996 12.88 5.63996 12.62C5.63996 12.36 5.84996 12.15 6.10996 12.15Z" fill="black"/>
<path d="M11.29 12.61C11.29 13.38 11.92 14.01 12.69 14.01C13.46 14.01 14.09 13.38 14.09 12.61C14.09 11.84 13.46 11.21 12.69 11.21C11.91 11.22 11.29 11.84 11.29 12.61ZM12.68 12.15C12.94 12.15 13.15 12.36 13.15 12.62C13.15 12.88 12.94 13.09 12.68 13.09C12.42 13.09 12.21 12.88 12.21 12.62C12.21 12.36 12.43 12.15 12.68 12.15Z" fill="black"/>
</svg>
