<svg width="30" height="30" fill="none" xmlns="http://www.w3.org/2000/svg"><path d="M9.74 22.45h4.86v-5.29h-1.75v-1.75h1.75v-2.18c0-1.2.98-2.18 2.18-2.18h2.18v1.75h-1.75a.87.87 0 0 0-.87.87v1.75h2.54l-.29 1.75h-2.25v5.29h3.93c1.2 0 2.18-.98 2.18-2.18V9.74c0-1.2-.98-2.18-2.18-2.18H9.74c-1.2 0-2.18.98-2.18 2.18v10.53c-.01 1.2.97 2.18 2.18 2.18zM8.43 9.74c0-.72.59-1.31 1.31-1.31h10.53c.72 0 1.31.59 1.31 1.31v10.53c0 .72-.59 1.31-1.31 1.31h-3.05v-3.55h2.11l.58-3.49h-2.7v-.87h2.62v-3.49h-3.05c-1.68 0-3.05 1.37-3.05 3.05v1.31h-1.75v3.49h1.75v3.55H9.74c-.72 0-1.31-.59-1.31-1.31V9.74z" fill="#8F5541"/></svg>