<svg width="30" height="30" fill="none" xmlns="http://www.w3.org/2000/svg"><path d="M9.74 22.45h10.53c1.2 0 2.18-.98 2.18-2.18V9.74c0-1.2-.98-2.18-2.18-2.18H9.74c-1.2 0-2.18.98-2.18 2.18v10.53c-.01 1.2.97 2.18 2.18 2.18zM8.43 9.74c0-.72.59-1.31 1.31-1.31h10.53c.72 0 1.31.59 1.31 1.31v10.53c0 .72-.59 1.31-1.31 1.31H9.74c-.72 0-1.31-.59-1.31-1.31V9.74z" fill="#8F5541"/><path d="M15 18.93c2.16 0 3.93-1.76 3.93-3.93a3.93 3.93 0 0 0-7.86 0c0 2.17 1.77 3.93 3.93 3.93zm0-6.98c1.68 0 3.05 1.37 3.05 3.05 0 1.68-1.37 3.05-3.05 3.05-1.68 0-3.05-1.37-3.05-3.05 0-1.68 1.37-3.05 3.05-3.05zm4.36 0c.72 0 1.31-.59 1.31-1.31 0-.72-.59-1.31-1.31-1.31-.72 0-1.31.59-1.31 1.31 0 .72.59 1.31 1.31 1.31zm0-1.75c.24 0 .44.2.44.44s-.2.44-.44.44-.44-.2-.44-.44.2-.44.44-.44z" fill="#8F5541"/></svg>