<svg width="81" height="40" viewBox="0 0 81 40" fill="none" xmlns="http://www.w3.org/2000/svg">
<path d="M79.2297 17.9503C78.5275 17.258 77.583 16.8575 76.4803 17.0404C74.2501 17.4113 72.3858 19.2954 70.8183 20.7887C70.6996 20.9025 70.576 21.0162 70.4573 21.1349C70.0122 21.5552 68.8996 22.2475 70.3139 18.9492C71.7281 15.6509 72.1583 15.2009 72.1583 15.2009C72.1583 15.2009 69.5969 13.7075 68.7166 15.3641C68.3507 16.0613 67.8414 17.4014 67.4211 18.7811C67.4112 18.7811 67.4062 18.791 67.4013 18.8058C67.2925 19.3695 66.793 20.1311 66.5161 20.4574C66.1799 20.853 66.1898 20.8431 65.6508 21.3179C65.4975 21.4514 65.2304 21.6838 65.1513 21.4168C65.087 21.1843 65.1859 20.8926 65.2453 20.675C65.4035 20.1212 65.626 19.5822 65.8535 19.053C66.8079 16.8179 67.3716 15.7844 67.609 15.3888C67.6782 15.2701 67.6436 15.1218 67.5249 15.0476C66.9661 14.7015 65.4332 13.9053 64.8101 15.1317C64.3601 16.0267 63.1387 18.2915 62.5947 20.2497L61.0123 21.5206C61.0123 21.5206 60.2459 22.1783 61.3239 19.3893C62.1546 17.2382 62.9013 15.9179 63.198 15.4284C63.2673 15.3097 63.2228 15.1515 63.0942 15.0971C62.3871 14.7756 60.3151 13.9943 59.7415 15.5273C59.514 16.1405 59.0492 17.3075 58.614 18.5833L56.73 18.8058C57.3234 17.2729 57.9118 15.7894 58.1096 15.3047C58.1492 15.2058 58.1195 15.0971 58.0305 15.0377C57.4866 14.6668 55.5679 13.5344 54.8163 15.369C54.4405 16.2888 53.8767 17.7228 53.3575 19.058C53.3229 19.1025 52.4921 20.1607 51.4636 20.3536C51.5526 20.1706 51.6367 19.9877 51.7207 19.7899C52.7147 17.441 53.1548 15.2009 51.8443 14.9784C51.6861 14.9537 51.5279 14.9339 51.3696 14.924C51.5625 14.6125 51.9432 13.7817 50.4054 13.9993C48.5213 14.2663 46.1527 15.4877 45.4159 18.0888C45.2576 18.6476 45.1192 19.236 45.0203 19.8146L43.3835 21.4217C43.3835 21.4217 42.523 22.3514 43.2598 20.042C43.9966 17.7327 44.6247 15.8932 44.6247 15.8932C44.6247 15.8932 45.1043 14.8548 43.8582 14.5531C42.617 14.2515 42.4934 14.3751 41.9593 15.2899C41.5439 16.0069 40.3275 18.0641 39.8231 18.9195C39.7885 18.9789 39.6995 18.9393 39.7192 18.875L40.6242 15.646C40.6242 15.646 40.8813 14.8548 40.1346 14.6075C39.383 14.3603 38.7006 14.2811 38.4138 15.0031C38.1269 15.7251 37.2665 17.4608 36.2973 18.7712C35.3825 20.0074 34.8435 21.1201 34.0869 20.0272C34.0721 19.9926 34.0523 19.953 34.0325 19.9085C33.5182 18.9443 33.1127 18.9245 31.6985 20.6058C30.7342 21.753 29.6908 22.2327 29.1271 22.4206C28.7562 22.5442 28.3408 22.4799 28.0441 22.2327C27.8463 22.0695 27.6831 21.8124 27.6831 21.4266C27.6831 20.4624 27.5348 20.6157 29.1765 19.7651C30.7391 18.9492 31.2831 18.3855 31.6589 17.891C32.0199 17.4113 32.0743 16.6992 31.9655 16.0762C31.832 15.3146 31.2781 14.4245 29.3199 14.4245C27.5793 14.4245 26.4024 15.4185 25.6606 16.4124C24.8892 17.4459 24.4639 18.6921 24.3552 19.9827C24.3453 20.0915 24.3403 20.2052 24.3354 20.319C24.276 20.3437 24.2118 20.3684 24.1475 20.403C22.4118 21.2486 21.1706 19.8294 25.7843 8.77242C27.3716 4.96478 28.4991 3.00657 28.5436 1.73076C28.6375 -0.959312 25.8387 0.31155 25.8387 0.31155C25.8387 0.31155 22.8914 1.01868 14.208 12.3773C5.53948 23.7261 1.00493 21.3772 1.00493 21.3772C1.00493 21.3772 0.639 25.7189 5.26751 25.7189C10.2076 25.7189 18.4953 11.507 22.3178 6.53729C24.9931 3.05602 26.1354 2.68514 26.3579 3.20437C26.4617 3.43678 26.2738 3.87194 26.1551 4.09446C25.2008 5.86477 19.4992 16.5954 18.6981 21.0459C17.9168 25.3777 23.1288 22.7766 24.2859 22.203C24.3453 22.1733 24.4244 22.1387 24.5035 22.0992C24.7705 23.1129 25.4233 23.9436 26.8375 23.9436C28.4793 23.9436 30.0073 23.2612 31.199 22.5096C31.199 23.1277 31.3869 23.7409 32.1089 23.7409C33.5677 23.7409 34.6061 23.0437 35.5506 21.3673C36.0698 20.4426 36.4209 19.9085 36.6385 19.6118C36.6781 19.5574 36.7621 19.6019 36.7374 19.6662C36.322 20.7245 35.16 23.5629 36.0698 23.7063C37.4544 23.9288 38.5967 23.6568 39.4028 22.114C39.9665 21.0261 40.5994 19.8838 40.9209 19.3003C40.9555 19.241 41.0445 19.2756 41.0297 19.3448C40.7775 20.3783 40.3027 23.014 40.6934 23.5233C41.1978 24.1859 42.2016 24.4678 44.4417 22.0349C44.5999 21.8618 44.7483 21.6986 44.8818 21.5354C44.8966 22.8755 45.3268 23.8843 46.5433 23.8843C48.1059 23.8843 49.4905 23.2415 50.5933 21.8124C50.9641 21.8618 51.4191 21.8667 51.8443 21.7036C52.0421 21.6294 52.2498 21.5404 52.4526 21.4464C52.2152 22.0596 52.0669 22.4503 52.0669 22.4503C52.0669 22.4503 51.3301 24.087 52.9471 23.9239C54.5641 23.7607 54.9152 23.8151 55.2613 22.7371C55.38 22.3711 55.7262 21.4365 56.1465 20.3486L58.169 20.0223C57.541 22.1783 57.269 24.1761 58.5646 23.9288C59.8354 23.6865 61.2794 22.7964 62.3426 22.0299C62.3673 22.5986 62.5453 23.0535 62.9458 23.3156C64.6024 24.3887 65.6458 23.281 66.6843 22.0349C66.6299 22.5788 66.6595 22.9843 66.8079 23.1673C67.4606 23.9684 68.7018 24.8684 72.1336 21.3129C75.9709 17.3322 78.7649 18.3014 78.1418 20.8975C78.1368 20.9173 78.127 20.9321 78.122 20.9519C78.0132 21.2585 77.9044 21.5404 77.7907 21.7926C77.3901 22.6926 76.7819 23.4838 76.0154 24.1019C74.171 25.5903 69.7304 28.3842 61.7838 29.1359C50.8059 30.1743 42.617 29.6798 32.0792 28.4782C21.5415 27.2766 9.85151 25.9117 6.46914 30.2831C3.08182 34.6495 7.45319 40.0544 16.191 40C24.1821 39.9506 30.9864 31.8161 32.0891 30.4265C32.188 30.3029 32.3413 30.2534 32.4946 30.293C33.7704 30.6342 35.0561 30.9408 36.3418 31.2474C38.6956 31.8062 41.0544 32.3353 43.423 32.8248C46.2318 33.4083 49.0554 33.9424 51.8938 34.3924C54.5492 34.8127 57.2245 35.1688 59.9096 35.3122C60.236 35.3319 60.5574 35.3418 60.8838 35.3468C69.6512 35.7918 76.2182 32.8644 79.6253 26.1343C81.9791 21.4662 80.4313 19.0234 79.2297 17.9503ZM29.493 16.3778C29.7749 16.0959 30.2743 16.0069 30.5809 16.2146C30.8529 16.3976 30.9419 16.9069 30.6798 17.1097C30.2051 17.4756 28.682 18.1827 28.5584 18.2371C27.7771 18.608 29.2952 16.5707 29.493 16.3778ZM51.1718 17.4805C50.7119 19.2261 49.5746 21.936 48.2741 22.0843C46.9389 22.2327 48.3285 18.8553 49.3273 17.263C49.8911 16.4322 51.1224 15.4284 51.2163 16.0712C51.3103 16.6745 51.2312 17.2036 51.1718 17.4805ZM15.0981 35.1688C4.2439 35.9056 8.52625 31.9199 13.6493 30.2534C18.9453 28.5326 28.2271 29.4326 28.2271 29.4326C28.2271 29.4326 25.9524 34.432 15.0981 35.1688Z" fill="#8F5541"/>
<path d="M38.7747 5.59772H39.2544L38.0083 6.9922L39.3533 8.48559H38.844L37.5286 7.02187V8.48559H37.0885V5.59772H37.5286V7.00209L38.7747 5.59772Z" fill="#8F5541"/>
<path d="M42.3796 7.03672C42.3796 7.50649 42.261 7.87242 42.0236 8.13945C41.7862 8.40648 41.4599 8.53505 41.0395 8.53505C40.7824 8.53505 40.55 8.47571 40.3522 8.35209C40.1544 8.23341 39.9962 8.06033 39.8874 7.83286C39.7786 7.60539 39.7242 7.34331 39.7242 7.03672C39.7242 6.56695 39.8429 6.20102 40.0753 5.93893C40.3126 5.67685 40.639 5.54828 41.0544 5.54828C41.4599 5.54828 41.7813 5.68179 42.0187 5.94882C42.2659 6.21585 42.3796 6.58178 42.3796 7.03672ZM40.1841 7.03672C40.1841 7.40759 40.2582 7.68451 40.4066 7.88231C40.5549 8.07517 40.7725 8.16912 41.0593 8.16912C41.3461 8.16912 41.5637 8.07517 41.7121 7.88231C41.8604 7.68946 41.9346 7.40759 41.9346 7.03672C41.9346 6.67079 41.8604 6.38893 41.7121 6.20102C41.5637 6.01311 41.3412 5.91421 41.0544 5.91421C40.7676 5.91421 40.5549 6.00816 40.4066 6.19607C40.2533 6.38398 40.1841 6.66585 40.1841 7.03672Z" fill="#8F5541"/>
<path d="M43.5862 5.59772V6.80429H45.2032V5.59772H45.6433V8.48559H45.2032V7.18506H43.5862V8.48559H43.1511V5.59772H43.5862Z" fill="#8F5541"/>
<path d="M49.0752 9.48448H48.6499V8.48559H46.6324V9.48448H46.212V8.10977H46.4395C46.6769 7.78835 46.8598 7.41253 46.9933 6.98231C47.1269 6.5521 47.1961 6.09222 47.201 5.59772H48.6648V8.10977H49.0752V9.48448ZM48.2395 8.10977V5.94387H47.5917C47.5719 6.33452 47.4928 6.73012 47.3642 7.12572C47.2357 7.52626 47.0774 7.85263 46.8895 8.10977H48.2395Z" fill="#8F5541"/>
<path d="M50.0642 5.59772V7.42736L50.0444 7.90703L50.0395 8.06032L51.5971 5.59772H52.146V8.48559H51.7356V6.72023L51.7455 6.36914L51.7603 6.02793L50.1977 8.48559H49.6537V5.59772H50.0642Z" fill="#8F5541"/>
<path d="M55.019 5.96859H54.0795V8.48559H53.6443V5.96859H52.7147V5.59772H55.019V5.96859Z" fill="#8F5541"/>
<path d="M56.8091 8.54C56.3838 8.54 56.0476 8.41143 55.8003 8.14934C55.5531 7.88726 55.4294 7.52627 55.4294 7.06639C55.4294 6.60156 55.5432 6.23069 55.7756 5.95871C56.0031 5.68179 56.3146 5.54828 56.7003 5.54828C57.0613 5.54828 57.3481 5.66696 57.5607 5.90432C57.7734 6.14168 57.8772 6.45816 57.8772 6.84387V7.12078H55.8893C55.8992 7.46199 55.9833 7.71913 56.1465 7.8922C56.3097 8.07022 56.5371 8.15429 56.8338 8.15429C57.1454 8.15429 57.4519 8.09 57.7536 7.96143V8.35209C57.6003 8.41637 57.4519 8.46582 57.3135 8.49549C57.1701 8.52516 57.0069 8.54 56.8091 8.54ZM56.6904 5.90926C56.458 5.90926 56.275 5.98344 56.1366 6.13673C55.9981 6.28508 55.919 6.49772 55.8943 6.76475H57.4025C57.4025 6.48783 57.3382 6.28014 57.2195 6.13179C57.0959 5.98344 56.9228 5.90926 56.6904 5.90926Z" fill="#8F5541"/>
<path d="M59.9591 8.53505C59.7712 8.53505 59.5981 8.50044 59.4448 8.43121C59.2915 8.36198 59.158 8.25319 59.0542 8.10978H59.0245C59.0443 8.27791 59.0542 8.43615 59.0542 8.58945V9.77625H58.619V5.59279H58.9751L59.0344 5.98838H59.0542C59.1679 5.83014 59.2965 5.71641 59.4498 5.64718C59.5981 5.57795 59.7712 5.54333 59.9641 5.54333C60.3448 5.54333 60.6415 5.6719 60.8492 5.93399C61.0569 6.19607 61.1607 6.562 61.1607 7.03672C61.1607 7.51144 61.0569 7.87737 60.8443 8.13945C60.6316 8.40648 60.3349 8.53505 59.9591 8.53505ZM59.8998 5.91421C59.6031 5.91421 59.3904 5.99827 59.2569 6.16146C59.1284 6.32464 59.0591 6.58673 59.0542 6.94277V7.04167C59.0542 7.44716 59.1234 7.73891 59.2569 7.91198C59.3954 8.08506 59.608 8.17407 59.9097 8.17407C60.1569 8.17407 60.3547 8.07517 60.4981 7.87242C60.6415 7.66968 60.7107 7.39276 60.7107 7.03672C60.7107 6.67574 60.6415 6.40376 60.4981 6.20596C60.3547 6.01311 60.152 5.91421 59.8998 5.91421Z" fill="#8F5541"/>
<path d="M63.0793 8.53505C62.664 8.53505 62.3376 8.40648 62.1101 8.14934C61.8777 7.8922 61.764 7.52628 61.764 7.0565C61.764 6.57189 61.8777 6.20102 62.1151 5.93893C62.3475 5.67685 62.6788 5.54333 63.109 5.54333C63.2475 5.54333 63.3859 5.55817 63.5244 5.58784C63.6629 5.61751 63.7716 5.65212 63.8508 5.69168L63.7172 6.06256C63.6183 6.023 63.5145 5.99333 63.4008 5.96366C63.287 5.93893 63.1881 5.92904 63.0991 5.92904C62.5156 5.92904 62.2189 6.29992 62.2189 7.05156C62.2189 7.4076 62.2881 7.67957 62.4316 7.86748C62.575 8.05539 62.7876 8.15429 63.0695 8.15429C63.3118 8.15429 63.559 8.10484 63.8112 8.00099V8.3867C63.6134 8.4856 63.3711 8.53505 63.0793 8.53505Z" fill="#8F5541"/>
<path d="M66.175 5.59772H66.6546L65.4085 6.9922L66.7585 8.48559H66.2491L64.9288 7.02187V8.48559H64.4937V5.59772H64.9288V7.00209L66.175 5.59772Z" fill="#8F5541"/>
<path d="M69.0677 8.4856L68.9787 8.07517H68.9589C68.8155 8.25813 68.6721 8.37681 68.5287 8.4411C68.3853 8.50538 68.2073 8.53505 67.9947 8.53505C67.7078 8.53505 67.4853 8.46088 67.3221 8.31253C67.1589 8.16418 67.0798 7.95649 67.0798 7.68451C67.0798 7.101 67.5447 6.79441 68.4793 6.76969L68.9688 6.75485V6.57684C68.9688 6.34937 68.9194 6.18124 68.8254 6.07739C68.7265 5.9686 68.5732 5.91421 68.3556 5.91421C68.1133 5.91421 67.8414 5.98838 67.5397 6.13673L67.4062 5.80047C67.5496 5.72135 67.7029 5.66201 67.876 5.61751C68.0441 5.573 68.2122 5.55322 68.3853 5.55322C68.7315 5.55322 68.9837 5.63234 69.1518 5.78069C69.3199 5.93399 69.399 6.18124 69.399 6.5175V8.4856H69.0677ZM68.0787 8.17407C68.3507 8.17407 68.5633 8.09989 68.7216 7.95154C68.8749 7.80319 68.954 7.5955 68.954 7.32353V7.06144L68.5188 7.08122C68.1727 7.09111 67.9205 7.15045 67.7672 7.24441C67.6139 7.33836 67.5397 7.49166 67.5397 7.68946C67.5397 7.8477 67.5892 7.96638 67.6831 8.05044C67.7721 8.13451 67.9056 8.17407 68.0787 8.17407Z" fill="#8F5541"/>
<path d="M70.4375 8.48559H69.9282L70.7589 7.26418C70.5364 7.21473 70.3683 7.12077 70.2446 6.97737C70.126 6.83397 70.0666 6.65595 70.0666 6.44331C70.0666 6.18123 70.1556 5.97354 70.3337 5.82024C70.5117 5.67189 70.7589 5.59277 71.0754 5.59277H72.3611V8.48065H71.9259V7.32846H71.1941L70.4375 8.48559ZM70.4919 6.4532C70.4919 6.78452 70.7342 6.95265 71.2188 6.95265H71.921V5.97848H71.1298C70.7045 5.97848 70.4919 6.13672 70.4919 6.4532Z" fill="#8F5541"/>
</svg>
