<svg width="80" height="40" viewBox="0 0 80 40" fill="none" xmlns="http://www.w3.org/2000/svg">
<path d="M78.2316 17.9387C77.5294 17.2464 76.5849 16.8459 75.4822 17.0288C73.252 17.3997 71.3877 19.2838 69.8202 20.7771C69.7015 20.8909 69.5779 21.0046 69.4592 21.1233C69.0141 21.5436 67.9015 22.2359 69.3158 18.9376C70.73 15.6393 71.1602 15.1893 71.1602 15.1893C71.1602 15.1893 68.5987 13.6959 67.7185 15.3525C67.3526 16.0497 66.8433 17.3898 66.423 18.7695C66.4131 18.7695 66.4081 18.7794 66.4032 18.7942C66.2944 19.3579 65.7949 20.1195 65.518 20.4458C65.1818 20.8414 65.1917 20.8315 64.6526 21.3063C64.4994 21.4398 64.2323 21.6722 64.1532 21.4052C64.0889 21.1727 64.1878 20.881 64.2472 20.6634C64.4054 20.1096 64.6279 19.5706 64.8554 19.0415C65.8098 16.8063 66.3735 15.7728 66.6109 15.3772C66.6801 15.2585 66.6455 15.1102 66.5268 15.036C65.968 14.6899 64.4351 13.8937 63.812 15.1201C63.362 16.0151 62.1406 18.2799 61.5966 20.2381L60.0142 21.509C60.0142 21.509 59.2478 22.1667 60.3258 19.3777C61.1565 17.2266 61.9032 15.9063 62.1999 15.4168C62.2692 15.2981 62.2247 15.1399 62.0961 15.0855C61.3889 14.764 59.317 13.9827 58.7434 15.5157C58.5159 16.1289 58.0511 17.2959 57.6159 18.5717L55.7319 18.7942C56.3253 17.2613 56.9137 15.7778 57.1115 15.2932C57.1511 15.1943 57.1214 15.0855 57.0324 15.0261C56.4885 14.6552 54.5698 13.5228 53.8182 15.3574C53.4424 16.2772 52.8786 17.7113 52.3594 19.0464C52.3248 19.0909 51.494 20.1491 50.4655 20.342C50.5545 20.159 50.6385 19.9761 50.7226 19.7783C51.7166 17.4294 52.1567 15.1893 50.8462 14.9668C50.688 14.9421 50.5298 14.9223 50.3715 14.9124C50.5644 14.6009 50.9451 13.7701 49.4072 13.9877C47.5232 14.2547 45.1546 15.4761 44.4178 18.0772C44.2595 18.636 44.1211 19.2244 44.0222 19.803L42.3854 21.4101C42.3854 21.4101 41.5249 22.3398 42.2617 20.0305C42.9985 17.7211 43.6266 15.8816 43.6266 15.8816C43.6266 15.8816 44.1062 14.8432 42.8601 14.5415C41.6189 14.2399 41.4953 14.3635 40.9612 15.2783C40.5458 15.9953 39.3294 18.0525 38.825 18.9079C38.7904 18.9673 38.7013 18.9277 38.7211 18.8634L39.6261 15.6344C39.6261 15.6344 39.8832 14.8432 39.1365 14.5959C38.3849 14.3487 37.7025 14.2695 37.4156 14.9915C37.1288 15.7135 36.2684 17.4492 35.2992 18.7596C34.3844 19.9958 33.8454 21.1085 33.0888 20.0156C33.074 19.981 33.0542 19.9414 33.0344 19.8969C32.5201 18.9327 32.1146 18.9129 30.7004 20.5942C29.7361 21.7414 28.6927 22.2211 28.129 22.409C27.7581 22.5326 27.3427 22.4683 27.046 22.2211C26.8482 22.0579 26.685 21.8008 26.685 21.415C26.685 20.4508 26.5367 20.6041 28.1784 19.7535C29.741 18.9376 30.285 18.3739 30.6608 17.8794C31.0218 17.3997 31.0762 16.6876 30.9674 16.0646C30.8339 15.303 30.28 14.4129 28.3218 14.4129C26.5812 14.4129 25.4043 15.4069 24.6625 16.4008C23.8911 17.4343 23.4658 18.6805 23.3571 19.9711C23.3472 20.0799 23.3422 20.1936 23.3373 20.3074C23.2779 20.3321 23.2136 20.3568 23.1494 20.3914C21.4137 21.237 20.1725 19.8178 24.7862 8.76083C26.3735 4.95319 27.501 2.99497 27.5455 1.71916C27.6394 -0.970909 24.8405 0.299953 24.8405 0.299953C24.8405 0.299953 21.8933 1.00709 13.2099 12.3657C4.54137 23.7145 0.0068212 21.3656 0.0068212 21.3656C0.0068212 21.3656 -0.359108 25.7073 4.2694 25.7073C9.20944 25.7073 17.4972 11.4954 21.3197 6.52569C23.995 3.04442 25.1372 2.67355 25.3598 3.19277C25.4636 3.42518 25.2757 3.86034 25.157 4.08287C24.2026 5.85317 18.5011 16.5838 17.7 21.0343C16.9187 25.3661 22.1307 22.765 23.2878 22.1914C23.3472 22.1617 23.4263 22.1271 23.5054 22.0876C23.7724 23.1013 24.4252 23.932 25.8394 23.932C27.4812 23.932 29.0092 23.2496 30.2009 22.498C30.2009 23.1161 30.3888 23.7293 31.1108 23.7293C32.5696 23.7293 33.608 23.0321 34.5525 21.3557C35.0717 20.431 35.4228 19.8969 35.6404 19.6002C35.68 19.5458 35.764 19.5903 35.7393 19.6546C35.3239 20.7129 34.1618 23.5513 35.0717 23.6947C36.4563 23.9172 37.5986 23.6452 38.4046 22.1024C38.9684 21.0145 39.6013 19.8722 39.9228 19.2887C39.9574 19.2294 40.0464 19.264 40.0315 19.3332C39.7794 20.3667 39.3046 23.0024 39.6953 23.5117C40.1997 24.1743 41.2035 24.4562 43.4436 22.0233C43.6018 21.8502 43.7502 21.687 43.8837 21.5238C43.8985 22.8639 44.3287 23.8727 45.5452 23.8727C47.1078 23.8727 48.4924 23.2299 49.5952 21.8008C49.966 21.8502 50.421 21.8552 50.8462 21.692C51.044 21.6178 51.2517 21.5288 51.4545 21.4348C51.2171 22.048 51.0688 22.4387 51.0688 22.4387C51.0688 22.4387 50.332 24.0755 51.949 23.9123C53.566 23.7491 53.9171 23.8035 54.2632 22.7255C54.3819 22.3595 54.728 21.4249 55.1484 20.337L57.1709 20.0107C56.5429 22.1667 56.2709 24.1645 57.5665 23.9172C58.8373 23.6749 60.2813 22.7848 61.3444 22.0183C61.3692 22.587 61.5472 23.0419 61.9477 23.304C63.6043 24.3771 64.6477 23.2694 65.6861 22.0233C65.6318 22.5672 65.6614 22.9727 65.8098 23.1557C66.4625 23.9568 67.7037 24.8568 71.1355 21.3013C74.9728 17.3206 77.7667 18.2898 77.1437 20.8859C77.1387 20.9057 77.1288 20.9205 77.1239 20.9403C77.0151 21.2469 76.9063 21.5288 76.7926 21.781C76.392 22.681 75.7838 23.4722 75.0173 24.0903C73.1729 25.5787 68.7323 28.3726 60.7857 29.1243C49.8078 30.1627 41.6189 29.6682 31.0811 28.4666C20.5434 27.265 8.8534 25.9002 5.47103 30.2715C2.08372 34.6379 6.45508 40.0428 15.1929 39.9884C23.184 39.939 29.9883 31.8045 31.091 30.4149C31.1899 30.2913 31.3432 30.2418 31.4965 30.2814C32.7723 30.6226 34.058 30.9292 35.3437 31.2358C37.6975 31.7946 40.0563 32.3237 42.4249 32.8132C45.2337 33.3967 48.0573 33.9308 50.8957 34.3808C53.5511 34.8011 56.2264 35.1572 58.9115 35.3006C59.2379 35.3204 59.5593 35.3302 59.8857 35.3352C68.6531 35.7802 75.2201 32.8528 78.6272 26.1227C80.981 21.4546 79.4332 19.0118 78.2316 17.9387ZM28.4949 16.3662C28.7768 16.0844 29.2762 15.9953 29.5828 16.203C29.8548 16.386 29.9438 16.8953 29.6817 17.0981C29.207 17.464 27.6839 18.1711 27.5603 18.2255C26.779 18.5964 28.2971 16.5591 28.4949 16.3662ZM50.1737 17.4689C49.7138 19.2145 48.5765 21.9244 47.276 22.0727C45.9408 22.2211 47.3303 18.8437 48.3292 17.2514C48.893 16.4206 50.1243 15.4168 50.2182 16.0596C50.3122 16.6629 50.2331 17.192 50.1737 17.4689ZM14.1 35.1572C3.24579 35.894 7.52815 31.9083 12.6512 30.2418C17.9472 28.521 27.229 29.421 27.229 29.421C27.229 29.421 24.9543 34.4204 14.1 35.1572Z" fill="white"/>
<path d="M37.7766 5.58594H38.2563L37.0102 6.98042L38.3552 8.47381H37.8459L36.5305 7.01009V8.47381H36.0904V5.58594H36.5305V6.99031L37.7766 5.58594Z" fill="white"/>
<path d="M41.3815 7.02506C41.3815 7.49484 41.2629 7.86076 41.0255 8.12779C40.7881 8.39482 40.4618 8.52339 40.0414 8.52339C39.7843 8.52339 39.5519 8.46405 39.3541 8.34043C39.1563 8.22175 38.998 8.04867 38.8893 7.82121C38.7805 7.59374 38.7261 7.33165 38.7261 7.02506C38.7261 6.55529 38.8448 6.18936 39.0772 5.92728C39.3145 5.66519 39.6409 5.53662 40.0563 5.53662C40.4618 5.53662 40.7832 5.67014 41.0205 5.93716C41.2678 6.20419 41.3815 6.57012 41.3815 7.02506ZM39.186 7.02506C39.186 7.39594 39.2601 7.67286 39.4085 7.87065C39.5568 8.06351 39.7744 8.15746 40.0612 8.15746C40.348 8.15746 40.5656 8.06351 40.714 7.87065C40.8623 7.6778 40.9365 7.39594 40.9365 7.02506C40.9365 6.65913 40.8623 6.37727 40.714 6.18936C40.5656 6.00145 40.3431 5.90255 40.0563 5.90255C39.7695 5.90255 39.5568 5.9965 39.4085 6.18441C39.2552 6.37232 39.186 6.65419 39.186 7.02506Z" fill="white"/>
<path d="M42.5881 5.58594V6.79251H44.2051V5.58594H44.6452V8.47381H44.2051V7.17328H42.5881V8.47381H42.153V5.58594H42.5881Z" fill="white"/>
<path d="M48.0771 9.4727H47.6518V8.47381H45.6343V9.4727H45.2139V8.09799H45.4414C45.6788 7.77657 45.8617 7.40075 45.9952 6.97053C46.1288 6.54032 46.198 6.08044 46.2029 5.58594H47.6666V8.09799H48.0771V9.4727ZM47.2414 8.09799V5.93209H46.5936C46.5738 6.32274 46.4947 6.71834 46.3661 7.11394C46.2375 7.51448 46.0793 7.84085 45.8914 8.09799H47.2414Z" fill="white"/>
<path d="M49.0661 5.58594V7.41558L49.0463 7.89525L49.0413 8.04854L50.599 5.58594H51.1479V8.47381H50.7375V6.70845L50.7474 6.35736L50.7622 6.01615L49.1996 8.47381H48.6556V5.58594H49.0661Z" fill="white"/>
<path d="M54.0209 5.95681H53.0814V8.47381H52.6462V5.95681H51.7166V5.58594H54.0209V5.95681Z" fill="white"/>
<path d="M55.811 8.52834C55.3857 8.52834 55.0495 8.39977 54.8022 8.13768C54.555 7.8756 54.4313 7.51462 54.4313 7.05473C54.4313 6.5899 54.5451 6.21903 54.7775 5.94706C55.005 5.67014 55.3165 5.53662 55.7022 5.53662C56.0632 5.53662 56.35 5.6553 56.5626 5.89266C56.7753 6.13002 56.8791 6.4465 56.8791 6.83221V7.10913H54.8912C54.9011 7.45033 54.9852 7.70747 55.1484 7.88054C55.3115 8.05856 55.539 8.14263 55.8357 8.14263C56.1472 8.14263 56.4538 8.07834 56.7555 7.94977V8.34043C56.6022 8.40471 56.4538 8.45416 56.3154 8.48383C56.172 8.5135 56.0088 8.52834 55.811 8.52834ZM55.6923 5.8976C55.4599 5.8976 55.2769 5.97178 55.1385 6.12507C55 6.27342 54.9209 6.48606 54.8962 6.75309H56.4044C56.4044 6.47617 56.3401 6.26848 56.2214 6.12013C56.0978 5.97178 55.9247 5.8976 55.6923 5.8976Z" fill="white"/>
<path d="M58.961 8.52346C58.7731 8.52346 58.6 8.48884 58.4467 8.41961C58.2934 8.35038 58.1599 8.24159 58.0561 8.09819H58.0264C58.0462 8.26632 58.0561 8.42456 58.0561 8.57785V9.76465H57.6209V5.58119H57.9769L58.0363 5.97679H58.0561C58.1698 5.81855 58.2984 5.70481 58.4517 5.63558C58.6 5.56635 58.7731 5.53174 58.9659 5.53174C59.3467 5.53174 59.6434 5.66031 59.8511 5.92239C60.0588 6.18448 60.1626 6.55041 60.1626 7.02512C60.1626 7.49984 60.0588 7.86577 59.8461 8.12786C59.6335 8.39489 59.3368 8.52346 58.961 8.52346ZM58.9017 5.90261C58.605 5.90261 58.3923 5.98668 58.2588 6.14986C58.1302 6.31305 58.061 6.57513 58.0561 6.93117V7.03007C58.0561 7.43556 58.1253 7.72731 58.2588 7.90039C58.3973 8.07346 58.6099 8.16247 58.9115 8.16247C59.1588 8.16247 59.3566 8.06357 59.5 7.86083C59.6434 7.65808 59.7126 7.38116 59.7126 7.02512C59.7126 6.66414 59.6434 6.39217 59.5 6.19437C59.3566 6.00151 59.1539 5.90261 58.9017 5.90261Z" fill="white"/>
<path d="M62.0812 8.52346C61.6659 8.52346 61.3395 8.39489 61.112 8.13775C60.8796 7.88061 60.7659 7.51468 60.7659 7.04491C60.7659 6.5603 60.8796 6.18942 61.117 5.92734C61.3494 5.66525 61.6807 5.53174 62.1109 5.53174C62.2494 5.53174 62.3878 5.54657 62.5263 5.57624C62.6647 5.60591 62.7735 5.64053 62.8527 5.68009L62.7191 6.05096C62.6202 6.0114 62.5164 5.98173 62.4027 5.95206C62.2889 5.92734 62.19 5.91745 62.101 5.91745C61.5175 5.91745 61.2208 6.28832 61.2208 7.03996C61.2208 7.396 61.29 7.66797 61.4334 7.85588C61.5768 8.04379 61.7895 8.14269 62.0713 8.14269C62.3136 8.14269 62.5609 8.09324 62.8131 7.9894V8.37511C62.6153 8.47401 62.373 8.52346 62.0812 8.52346Z" fill="white"/>
<path d="M65.1768 5.58594H65.6565L64.4104 6.98042L65.7604 8.47381H65.251L63.9307 7.01009V8.47381H63.4955V5.58594H63.9307V6.99031L65.1768 5.58594Z" fill="white"/>
<path d="M68.0696 8.47388L67.9806 8.06345H67.9608C67.8174 8.24641 67.674 8.36509 67.5306 8.42938C67.3872 8.49366 67.2092 8.52333 66.9965 8.52333C66.7097 8.52333 66.4872 8.44916 66.324 8.30081C66.1608 8.15246 66.0817 7.94477 66.0817 7.67279C66.0817 7.08929 66.5466 6.7827 67.4812 6.75797L67.9707 6.74314V6.56512C67.9707 6.33765 67.9213 6.16952 67.8273 6.06567C67.7284 5.95688 67.5751 5.90249 67.3575 5.90249C67.1152 5.90249 66.8432 5.97666 66.5416 6.12501L66.4081 5.78875C66.5515 5.70963 66.7048 5.65029 66.8779 5.60579C67.046 5.56128 67.2141 5.5415 67.3872 5.5415C67.7334 5.5415 67.9855 5.62062 68.1537 5.76897C68.3218 5.92227 68.4009 6.16952 68.4009 6.50578V8.47388H68.0696ZM67.0806 8.16235C67.3526 8.16235 67.5652 8.08817 67.7235 7.93982C67.8768 7.79147 67.9559 7.58378 67.9559 7.31181V7.04973L67.5207 7.06951C67.1746 7.0794 66.9224 7.13873 66.7691 7.23269C66.6158 7.32664 66.5416 7.47994 66.5416 7.67774C66.5416 7.83598 66.5911 7.95466 66.685 8.03872C66.774 8.12279 66.9075 8.16235 67.0806 8.16235Z" fill="white"/>
<path d="M69.4394 8.47387H68.9301L69.7608 7.25246C69.5383 7.20301 69.3702 7.10906 69.2465 6.96565C69.1279 6.82225 69.0685 6.64423 69.0685 6.43159C69.0685 6.16951 69.1575 5.96182 69.3355 5.80852C69.5136 5.66017 69.7608 5.58105 70.0773 5.58105H71.363V8.46893H70.9278V7.31675H70.196L69.4394 8.47387ZM69.4938 6.44148C69.4938 6.7728 69.7361 6.94093 70.2207 6.94093H70.9229V5.96676H70.1317C69.7064 5.96676 69.4938 6.125 69.4938 6.44148Z" fill="white"/>
</svg>
