<svg width="84" height="84" viewBox="0 0 84 84" fill="none" xmlns="http://www.w3.org/2000/svg">
<rect width="84" height="84" rx="42" fill="#F6D8CB"/>
<path d="M60.014 52.889L50.461 48.113C49.56 47.662 49 46.756 49 45.748V42.367C49.229 42.087 49.47 41.768 49.719 41.416C50.958 39.666 51.951 37.718 52.673 35.617C54.084 34.97 55 33.575 55 32V28C55 27.037 54.64 26.104 54 25.375V20.056C54.056 19.506 54.276 16.232 51.908 13.531C49.854 11.188 46.521 10 42 10C37.479 10 34.146 11.188 32.092 13.53C29.724 16.231 29.944 19.506 30 20.056V25.375C29.36 26.104 29 27.037 29 28V32C29 33.217 29.553 34.352 30.497 35.109C31.413 38.736 33.33 41.469 34 42.346V45.655C34 46.623 33.472 47.511 32.623 47.975L23.702 52.841C20.801 54.424 19 57.458 19 60.762V64C19 68.746 34.045 70 42 70C49.955 70 65 68.746 65 64V60.957C65 57.519 63.089 54.427 60.014 52.889ZM63 64C63 65.357 55.588 68 42 68C28.412 68 21 65.357 21 64V60.762C21 58.191 22.402 55.828 24.659 54.598L33.58 49.732C35.073 48.917 36 47.354 36 45.655V41.636L35.767 41.358C35.743 41.329 33.292 38.364 32.357 34.293L32.266 33.897L31.925 33.677C31.346 33.303 31 32.676 31 32V28C31 27.439 31.238 26.916 31.67 26.525L32 26.228V20L31.991 19.869C31.988 19.842 31.648 17.07 33.596 14.848C35.253 12.958 38.081 12 42 12C45.905 12 48.727 12.951 50.386 14.828C52.333 17.029 52.011 19.845 52.009 19.869L52 26.228L52.33 26.526C52.762 26.916 53 27.439 53 28V32C53 32.873 52.428 33.637 51.578 33.899L51.08 34.052L50.92 34.547C50.251 36.628 49.298 38.55 48.086 40.26C47.789 40.681 47.5 41.054 47.249 41.339L47 41.623V45.748C47 47.518 47.983 49.109 49.566 49.901L59.119 54.677C61.513 55.874 63 58.28 63 60.957V64Z" fill="#8F5541"/>
</svg>
