<svg width="30" height="40" viewBox="0 0 30 40" fill="none" xmlns="http://www.w3.org/2000/svg">
<path d="M30 15C30 23.2843 15 40 15 40C15 40 0 23.2843 0 15C0 6.71573 6.71573 0 15 0C23.2843 0 30 6.71573 30 15Z" fill="#8F5541"/>
<path d="M22.9459 15.3058C23.5265 15.3058 24 14.8329 24 14.2531V11.014C24 10.4342 23.5265 9.96135 22.9459 9.96135H21.3178C21.3762 9.61477 21.3211 9.26495 21.1362 8.96048C20.9254 8.61067 20.5914 8.37098 20.1924 8.28352C19.9622 8.2317 19.7319 8.18635 19.5016 8.14101C19.3622 8.11509 19.2292 8.20579 19.2032 8.34507C19.1773 8.48434 19.2681 8.61715 19.4076 8.64306C19.6314 8.68517 19.8616 8.73375 20.0854 8.78234C20.3449 8.84064 20.5654 8.99611 20.7016 9.22608C20.8378 9.44958 20.8735 9.71194 20.8054 9.96459H13.2584C13.2584 9.94515 13.2649 9.92896 13.2649 9.90952V8.27057C14.893 8.16044 16.5373 8.2155 18.1557 8.439C18.2951 8.45843 18.4249 8.36126 18.4443 8.22198C18.4638 8.0827 18.3665 7.95314 18.227 7.93371C17.4227 7.82358 16.6086 7.75232 15.7978 7.72317C15.7622 6.76765 14.8995 6 13.8454 6C13.3686 6 12.9081 6.15871 12.5514 6.44699C12.4346 6.54092 12.2757 6.57655 12.1297 6.53768C11.9838 6.49881 11.8346 6.47938 11.6822 6.47938C10.7903 6.47938 10.0638 7.14338 10.0638 7.95962C10.0638 8.03412 10.0703 8.10862 10.0832 8.17987C9.91784 8.21227 9.75243 8.24789 9.59027 8.28352C9.19135 8.37098 8.8573 8.61391 8.64649 8.96048C8.46162 9.26495 8.40649 9.61477 8.46486 9.96135H7.05405C6.47351 9.96135 6 10.4342 6 11.014V11.9857C6 12.5655 6.47351 13.0384 7.05405 13.0384H7.5373V18.2792H7.16108C6.65514 18.2792 6.24 18.6906 6.24 19.1991V20.0801C6.24 20.5854 6.65189 21 7.16108 21H21.4346C21.5773 21 21.6908 20.8866 21.6908 20.7441C21.6908 20.6016 21.5773 20.4882 21.4346 20.4882H7.16432C6.94054 20.4882 6.75892 20.3068 6.75892 20.0834V19.2023C6.75892 18.9788 6.94054 18.7975 7.16432 18.7975H22.8389C23.0627 18.7975 23.2443 18.9788 23.2443 19.2023V20.0834C23.2443 20.3068 23.0627 20.4882 22.8389 20.4882H22.6151C22.4724 20.4882 22.3589 20.6016 22.3589 20.7441C22.3589 20.8866 22.4724 21 22.6151 21H22.8389C23.3449 21 23.76 20.5886 23.76 20.0801V19.1991C23.76 18.6938 23.3481 18.2792 22.8389 18.2792H22.4627V15.3058H22.9459ZM11.6822 6.98791C11.7892 6.98791 11.8962 7.00086 12 7.03002C12.3016 7.11099 12.6292 7.03973 12.8724 6.84215C13.1384 6.62837 13.4822 6.50853 13.8422 6.50853C14.6076 6.50853 15.2368 7.03973 15.2822 7.70697C14.5168 7.69402 13.7514 7.71669 12.9892 7.77823C12.8562 7.78795 12.7524 7.90132 12.7524 8.03412V9.90952C12.7524 10.3209 12.4184 10.6545 12.0065 10.6545C11.5946 10.6545 11.2605 10.3209 11.2605 9.90952V8.27381C11.2605 8.19931 11.2281 8.12805 11.1697 8.07946C11.1114 8.03088 11.0368 8.00821 10.9622 8.02116C10.8357 8.0406 10.7092 8.06327 10.5827 8.08594C10.5762 8.04383 10.573 8.00173 10.573 7.95962C10.5762 7.42518 11.0724 6.98791 11.6822 6.98791ZM9.08432 9.22285C9.22054 8.99611 9.44108 8.8374 9.70054 8.7791C9.94703 8.72403 10.1968 8.67545 10.4497 8.62686C10.4497 8.62686 10.453 8.62686 10.4562 8.62686C10.5568 8.60743 10.6541 8.59123 10.7546 8.5718V9.90628C10.7546 9.92572 10.7578 9.94191 10.7611 9.96135H8.98378C8.91243 9.7087 8.95135 9.44634 9.08432 9.22285ZM14.1373 17.7642V18.2792H8.05297V15.0726V14.3664V13.0384C8.35459 13.0514 8.59459 13.2976 8.59459 13.602V16.1933C8.59459 16.7731 9.06811 17.246 9.64865 17.246H10.6216C11.2022 17.246 11.6757 16.7731 11.6757 16.1933V15.2896L14.1568 17.6217C14.147 17.667 14.1373 17.7156 14.1373 17.7642ZM15.347 18.2792H14.6497V17.7642C14.6497 17.7577 14.6562 17.7512 14.6627 17.7512H15.3341C15.3405 17.7512 15.347 17.7577 15.347 17.7642V18.2792ZM15.3341 17.2395H14.6627C14.6108 17.2395 14.5622 17.246 14.5168 17.2621L11.6724 14.5899V13.6053C11.6724 13.2943 11.9286 13.0384 12.24 13.0384H13.213C13.5243 13.0384 13.7805 13.2943 13.7805 13.6053C13.7805 14.1851 14.2541 14.658 14.8346 14.658H15.4832C16.0638 14.658 16.5373 14.1851 16.5373 13.6053C16.5373 13.2943 16.7935 13.0384 17.1049 13.0384H19.8746L15.48 17.2589C15.4346 17.246 15.3859 17.2395 15.3341 17.2395ZM21.947 18.2792H15.8627V17.7642C15.8627 17.7156 15.8562 17.6703 15.8432 17.6249L20.6205 13.0384H20.6789C20.9903 13.0384 21.2465 13.2943 21.2465 13.6053V14.2531C21.2465 14.7098 21.5416 15.0985 21.9503 15.241V18.2792H21.947ZM22.2973 14.8199C21.9859 14.8199 21.7297 14.564 21.7297 14.2531V13.6053C21.7297 13.0255 21.2562 12.5526 20.6757 12.5526H17.1081C16.5276 12.5526 16.0541 13.0255 16.0541 13.6053C16.0541 13.9162 15.7978 14.1721 15.4865 14.1721H14.8378C14.5265 14.1721 14.2703 13.9162 14.2703 13.6053C14.2703 13.0255 13.7968 12.5526 13.2162 12.5526H12.2432C11.6627 12.5526 11.1892 13.0255 11.1892 13.6053V16.1965C11.1892 16.5075 10.933 16.7633 10.6216 16.7633H9.64865C9.3373 16.7633 9.08108 16.5075 9.08108 16.1965V13.6053C9.08108 13.0255 8.60757 12.5526 8.02703 12.5526H7.05405C6.7427 12.5526 6.48649 12.2967 6.48649 11.9857V11.014C6.48649 10.7031 6.7427 10.4472 7.05405 10.4472H10.8778C11.0822 10.8683 11.5103 11.163 12.0065 11.163C12.5059 11.163 12.9341 10.8683 13.1351 10.4472H22.9459C23.2573 10.4472 23.5135 10.7031 23.5135 11.014V14.2531C23.5135 14.564 23.2573 14.8199 22.9459 14.8199H22.2973Z" fill="white"/>
</svg>
