<svg width="164" height="165" viewBox="0 0 164 165" fill="none" xmlns="http://www.w3.org/2000/svg">
<path d="M64.5 46.75C66.29 46.75 67.75 45.29 67.75 43.5V33.5C67.75 31.71 66.29 30.25 64.5 30.25H59.48C59.66 29.18 59.49 28.1 58.92 27.16C58.27 26.08 57.24 25.34 56.01 25.07C55.3 24.91 54.59 24.77 53.88 24.63C53.45 24.55 53.04 24.83 52.96 25.26C52.88 25.69 53.16 26.1 53.59 26.18C54.28 26.31 54.99 26.46 55.68 26.61C56.48 26.79 57.16 27.27 57.58 27.98C58 28.67 58.11 29.48 57.9 30.26H34.63C34.63 30.2 34.65 30.15 34.65 30.09V25.03C39.67 24.69 44.74 24.86 49.73 25.55C50.16 25.61 50.56 25.31 50.62 24.88C50.68 24.45 50.38 24.05 49.95 23.99C47.47 23.65 44.96 23.43 42.46 23.34C42.35 20.39 39.69 18.02 36.44 18.02C34.97 18.02 33.55 18.51 32.45 19.4C32.09 19.69 31.6 19.8 31.15 19.68C30.7 19.56 30.24 19.5 29.77 19.5C27.02 19.5 24.78 21.55 24.78 24.07C24.78 24.3 24.8 24.53 24.84 24.75C24.33 24.85 23.82 24.96 23.32 25.07C22.09 25.34 21.06 26.09 20.41 27.16C19.84 28.1 19.67 29.18 19.85 30.25H15.5C13.71 30.25 12.25 31.71 12.25 33.5V36.5C12.25 38.29 13.71 39.75 15.5 39.75H16.99V55.93H15.83C14.27 55.93 12.99 57.2 12.99 58.77V61.49C12.99 63.05 14.26 64.33 15.83 64.33H59.84C60.28 64.33 60.63 63.98 60.63 63.54C60.63 63.1 60.28 62.75 59.84 62.75H15.84C15.15 62.75 14.59 62.19 14.59 61.5V58.78C14.59 58.09 15.15 57.53 15.84 57.53H64.17C64.86 57.53 65.42 58.09 65.42 58.78V61.5C65.42 62.19 64.86 62.75 64.17 62.75H63.48C63.04 62.75 62.69 63.1 62.69 63.54C62.69 63.98 63.04 64.33 63.48 64.33H64.17C65.73 64.33 67.01 63.06 67.01 61.49V58.77C67.01 57.21 65.74 55.93 64.17 55.93H63.01V46.75H64.5ZM29.77 21.07C30.1 21.07 30.43 21.11 30.75 21.2C31.68 21.45 32.69 21.23 33.44 20.62C34.26 19.96 35.32 19.59 36.43 19.59C38.79 19.59 40.73 21.23 40.87 23.29C38.51 23.25 36.15 23.32 33.8 23.51C33.39 23.54 33.07 23.89 33.07 24.3V30.09C33.07 31.36 32.04 32.39 30.77 32.39C29.5 32.39 28.47 31.36 28.47 30.09V25.04C28.47 24.81 28.37 24.59 28.19 24.44C28.01 24.29 27.78 24.22 27.55 24.26C27.16 24.32 26.77 24.39 26.38 24.46C26.36 24.33 26.35 24.2 26.35 24.07C26.36 22.42 27.89 21.07 29.77 21.07ZM21.76 27.97C22.18 27.27 22.86 26.78 23.66 26.6C24.42 26.43 25.19 26.28 25.97 26.13C25.97 26.13 25.98 26.13 25.99 26.13C26.3 26.07 26.6 26.02 26.91 25.96V30.08C26.91 30.14 26.92 30.19 26.93 30.25H21.45C21.23 29.47 21.35 28.66 21.76 27.97ZM37.34 54.34V55.93H18.58V46.03V43.85V39.75C19.51 39.79 20.25 40.55 20.25 41.49V49.49C20.25 51.28 21.71 52.74 23.5 52.74H26.5C28.29 52.74 29.75 51.28 29.75 49.49V46.7L37.4 53.9C37.37 54.04 37.34 54.19 37.34 54.34ZM41.07 55.93H38.92V54.34C38.92 54.32 38.94 54.3 38.96 54.3H41.03C41.05 54.3 41.07 54.32 41.07 54.34V55.93ZM41.03 52.72H38.96C38.8 52.72 38.65 52.74 38.51 52.79L29.74 44.54V41.5C29.74 40.54 30.53 39.75 31.49 39.75H34.49C35.45 39.75 36.24 40.54 36.24 41.5C36.24 43.29 37.7 44.75 39.49 44.75H41.49C43.28 44.75 44.74 43.29 44.74 41.5C44.74 40.54 45.53 39.75 46.49 39.75H55.03L41.48 52.78C41.34 52.74 41.19 52.72 41.03 52.72ZM61.42 55.93H42.66V54.34C42.66 54.19 42.64 54.05 42.6 53.91L57.33 39.75H57.51C58.47 39.75 59.26 40.54 59.26 41.5V43.5C59.26 44.91 60.17 46.11 61.43 46.55V55.93H61.42ZM62.5 45.25C61.54 45.25 60.75 44.46 60.75 43.5V41.5C60.75 39.71 59.29 38.25 57.5 38.25H46.5C44.71 38.25 43.25 39.71 43.25 41.5C43.25 42.46 42.46 43.25 41.5 43.25H39.5C38.54 43.25 37.75 42.46 37.75 41.5C37.75 39.71 36.29 38.25 34.5 38.25H31.5C29.71 38.25 28.25 39.71 28.25 41.5V49.5C28.25 50.46 27.46 51.25 26.5 51.25H23.5C22.54 51.25 21.75 50.46 21.75 49.5V41.5C21.75 39.71 20.29 38.25 18.5 38.25H15.5C14.54 38.25 13.75 37.46 13.75 36.5V33.5C13.75 32.54 14.54 31.75 15.5 31.75H27.29C27.92 33.05 29.24 33.96 30.77 33.96C32.31 33.96 33.63 33.05 34.25 31.75H64.5C65.46 31.75 66.25 32.54 66.25 33.5V43.5C66.25 44.46 65.46 45.25 64.5 45.25H62.5Z" fill="#8F5541"/>
<path d="M35.19 103.98C35.19 103.56 34.85 103.22 34.43 103.22C34.01 103.22 33.67 103.56 33.67 103.98C33.67 104.4 34.01 104.74 34.43 104.74C34.85 104.74 35.19 104.4 35.19 103.98ZM31.71 109.9C31.27 109.9 30.92 110.25 30.92 110.69V112.09C30.92 112.53 31.27 112.88 31.71 112.88C32.15 112.88 32.5 112.53 32.5 112.09V110.69C32.5 110.26 32.14 109.9 31.71 109.9ZM27.37 126.02C27.37 126.44 27.71 126.78 28.13 126.78C28.55 126.78 28.89 126.44 28.89 126.02C28.89 125.6 28.55 125.26 28.13 125.26C27.72 125.25 27.37 125.59 27.37 126.02ZM58.13 121.81H53.3C55.78 119.57 57.08 116.59 57.08 113.07C57.08 108.95 55.29 105.13 52.04 102.31C48.84 99.53 44.56 98 40 98C35.23 98 30.65 99.74 27.46 102.77C27.14 103.07 27.13 103.57 27.43 103.89C27.73 104.21 28.23 104.22 28.55 103.92C31.46 101.16 35.63 99.58 40.01 99.58C44.19 99.58 48.1 100.97 51.01 103.5C53.91 106.02 55.51 109.42 55.51 113.07C55.51 116.84 53.79 119.9 50.53 121.93C50.23 122.12 50.09 122.48 50.19 122.82C50.29 123.16 50.6 123.39 50.95 123.39H55.93C55.1 124.36 55.15 125.83 56.07 126.75C56.24 126.92 56.33 127.15 56.33 127.39C56.33 127.63 56.24 127.86 56.07 128.03C55.15 128.95 55.11 130.42 55.93 131.39H51.51C50.76 131.39 50.06 131.76 49.63 132.37C49.2 132.98 49.1 133.77 49.35 134.47L52.2 142.31C51.65 142.11 51.05 142.1 50.49 142.31C49.87 142.54 49.37 142.99 49.09 143.59C48.88 144.04 48.34 144.24 47.89 144.03C46.71 143.48 45.32 143.94 44.68 145.05L43.78 142.57C43.21 140.99 41.69 139.94 40.02 139.94C38.34 139.94 36.83 141 36.26 142.57L35.36 145.05C34.73 143.94 33.33 143.48 32.15 144.03C31.7 144.24 31.16 144.04 30.95 143.59C30.67 142.99 30.17 142.53 29.55 142.31C28.99 142.11 28.39 142.11 27.84 142.31L30.69 134.47C30.95 133.77 30.84 132.98 30.41 132.37C29.98 131.76 29.28 131.39 28.53 131.39H24.11C24.94 130.42 24.89 128.95 23.97 128.03C23.8 127.86 23.71 127.63 23.71 127.39C23.71 127.15 23.8 126.92 23.97 126.75C24.89 125.83 24.93 124.36 24.11 123.39H29.09C29.44 123.39 29.75 123.16 29.85 122.82C29.95 122.48 29.81 122.12 29.51 121.93C26.25 119.9 24.53 116.84 24.53 113.07C24.53 110.76 25.15 108.58 26.38 106.59C26.61 106.22 26.49 105.73 26.12 105.5C25.75 105.27 25.26 105.38 25.03 105.76C23.67 107.96 22.95 110.49 22.95 113.07C22.95 116.59 24.25 119.57 26.73 121.81H21.9C18.82 121.81 16.32 124.31 16.32 127.39C16.32 130.47 18.82 132.97 21.9 132.97H28.54C28.78 132.97 28.99 133.08 29.13 133.28C29.27 133.47 29.3 133.71 29.22 133.94L25.72 143.55C25.72 143.56 25.71 143.57 25.71 143.57L25.41 144.4C24.9 145.8 24.97 147.32 25.6 148.67C26.23 150.02 27.35 151.05 28.75 151.56C30.15 152.07 31.67 152 33.02 151.37C34.37 150.74 35.4 149.62 35.91 148.22L37.77 143.12C38.12 142.17 39.03 141.52 40.05 141.52C41.07 141.52 41.98 142.16 42.33 143.12L44.18 148.22C44.69 149.62 45.71 150.74 47.07 151.37C47.82 151.72 48.62 151.9 49.42 151.9C50.06 151.9 50.71 151.79 51.33 151.56C52.32 151.2 53.19 150.57 53.83 149.74C54.1 149.4 54.03 148.9 53.69 148.63C53.35 148.36 52.85 148.43 52.58 148.77C52.12 149.36 51.5 149.82 50.79 150.07C49.79 150.44 48.7 150.39 47.73 149.94C46.76 149.49 46.03 148.69 45.66 147.68L45.47 147.15L46 145.91C46.21 145.46 46.75 145.26 47.2 145.47C48.44 146.05 49.92 145.51 50.5 144.27C50.6 144.05 50.78 143.89 51.01 143.8C51.24 143.72 51.48 143.73 51.7 143.83L52.94 144.41L53.13 144.94C53.24 145.25 53.32 145.56 53.35 145.88C53.39 146.28 53.74 146.58 54.13 146.58C54.16 146.58 54.19 146.58 54.22 146.58C54.65 146.53 54.97 146.14 54.92 145.71C54.87 145.26 54.77 144.82 54.61 144.4L54.31 143.57C54.31 143.56 54.3 143.55 54.3 143.55L50.8 133.94C50.72 133.72 50.75 133.48 50.89 133.28C51.03 133.09 51.24 132.97 51.48 132.97H58.12C61.2 132.97 63.7 130.47 63.7 127.39C63.71 124.32 61.21 121.81 58.13 121.81ZM22.84 129.15C23.19 129.5 23.19 130.08 22.84 130.43L21.87 131.4C19.66 131.4 17.87 129.6 17.87 127.4C17.87 125.19 19.66 123.4 21.87 123.4L22.84 124.37C23.19 124.72 23.19 125.3 22.84 125.65C22.37 126.12 22.11 126.74 22.11 127.41C22.12 128.06 22.37 128.68 22.84 129.15ZM34.38 147.68C34.01 148.68 33.28 149.49 32.31 149.94C31.34 150.39 30.26 150.44 29.25 150.07C28.25 149.7 27.44 148.97 26.99 148C26.54 147.03 26.49 145.94 26.86 144.94L27.05 144.41L28.29 143.83C28.51 143.73 28.75 143.72 28.98 143.8C29.21 143.88 29.39 144.05 29.49 144.27C30.07 145.51 31.55 146.05 32.79 145.47C33.24 145.26 33.78 145.46 33.99 145.91L34.57 147.15L34.38 147.68ZM58.13 131.4L57.16 130.43C56.81 130.08 56.81 129.5 57.16 129.15C57.63 128.68 57.89 128.06 57.89 127.39C57.89 126.73 57.63 126.1 57.16 125.63C56.81 125.28 56.81 124.7 57.16 124.35L58.13 123.38C60.34 123.38 62.13 125.17 62.13 127.38C62.13 129.6 60.33 131.4 58.13 131.4ZM31.71 141.17C31.71 141.59 32.05 141.93 32.47 141.93C32.89 141.93 33.23 141.59 33.23 141.17C33.23 140.75 32.89 140.41 32.47 140.41C32.05 140.41 31.71 140.74 31.71 141.17ZM48.29 112.88C48.73 112.88 49.08 112.53 49.08 112.09V110.69C49.08 110.25 48.73 109.9 48.29 109.9C47.85 109.9 47.5 110.25 47.5 110.69V112.09C47.5 112.53 47.86 112.88 48.29 112.88ZM45.58 105.05C45.16 105.05 44.82 105.39 44.82 105.81C44.82 106.23 45.16 106.57 45.58 106.57C46 106.57 46.34 106.23 46.34 105.81C46.34 105.39 46 105.05 45.58 105.05ZM40 129.38C41.74 129.38 43.15 127.97 43.15 126.23C43.15 124.49 41.74 123.08 40 123.08C38.26 123.08 36.85 124.49 36.85 126.23C36.85 127.97 38.26 129.38 40 129.38ZM40 124.66C40.87 124.66 41.57 125.37 41.57 126.23C41.57 127.1 40.86 127.8 40 127.8C39.14 127.8 38.43 127.09 38.43 126.23C38.43 125.36 39.13 124.66 40 124.66ZM51.68 128.59C51.68 128.17 51.34 127.83 50.92 127.83C50.5 127.83 50.16 128.17 50.16 128.59C50.16 129.01 50.5 129.35 50.92 129.35C51.34 129.36 51.68 129.01 51.68 128.59ZM40 116.31C41.74 116.31 43.15 114.9 43.15 113.16V111.44C43.15 110.65 42.51 110.01 41.72 110.01H38.29C37.5 110.01 36.86 110.65 36.86 111.44V113.16C36.85 114.9 38.26 116.31 40 116.31ZM38.43 111.59H41.58V113.16C41.58 114.03 40.87 114.73 40.01 114.73C39.15 114.73 38.44 114.02 38.44 113.16V111.59H38.43ZM40 136.97C41.74 136.97 43.15 135.56 43.15 133.82C43.15 132.08 41.74 130.67 40 130.67C38.26 130.67 36.85 132.08 36.85 133.82C36.85 135.56 38.26 136.97 40 136.97ZM40 132.25C40.87 132.25 41.57 132.96 41.57 133.82C41.57 134.68 40.86 135.39 40 135.39C39.14 135.39 38.43 134.68 38.43 133.82C38.43 132.96 39.13 132.25 40 132.25ZM46.34 138.15C46.34 138.57 46.68 138.91 47.1 138.91C47.52 138.91 47.86 138.57 47.86 138.15C47.86 137.73 47.52 137.39 47.1 137.39C46.68 137.39 46.34 137.73 46.34 138.15Z" fill="#8F5541"/>
<path d="M122.64 34.15L120.72 36.07C120.47 36.32 120.34 36.64 120.34 36.99C120.34 37.34 120.48 37.66 120.72 37.91L121.68 38.87C122.2 39.39 122.88 39.65 123.56 39.65C124.24 39.65 124.92 39.39 125.44 38.87C126.48 37.83 126.48 36.14 125.44 35.11L124.48 34.15C123.97 33.65 123.15 33.65 122.64 34.15ZM124.32 37.76C123.9 38.18 123.21 38.18 122.79 37.76L122.03 37L123.56 35.47L124.32 36.23C124.74 36.65 124.74 37.34 124.32 37.76ZM103.35 55.32L107.9 56.16C107.95 56.17 108 56.17 108.04 56.17C108.41 56.17 108.75 55.9 108.82 55.52C108.9 55.09 108.61 54.68 108.19 54.6L103.64 53.76C103.21 53.68 102.8 53.97 102.72 54.39C102.64 54.83 102.92 55.24 103.35 55.32ZM140.65 25.29C141.01 25.04 141.1 24.55 140.85 24.19C140.6 23.83 140.11 23.74 139.75 23.99L135.94 26.62C135.58 26.87 135.49 27.36 135.74 27.72C135.89 27.94 136.14 28.06 136.39 28.06C136.54 28.06 136.7 28.01 136.84 27.92L140.65 25.29ZM137.24 20.58C136.88 20.33 136.39 20.42 136.14 20.78L133.51 24.59C133.26 24.95 133.35 25.44 133.71 25.69C133.85 25.78 134 25.83 134.16 25.83C134.41 25.83 134.66 25.71 134.81 25.49L137.44 21.68C137.7 21.32 137.6 20.83 137.24 20.58ZM127.04 32.32C127.19 32.47 127.4 32.55 127.6 32.55C127.8 32.55 128 32.47 128.16 32.32C128.47 32.01 128.47 31.51 128.16 31.2L127.38 30.42C127.07 30.11 126.57 30.11 126.26 30.42C125.95 30.73 125.95 31.23 126.26 31.54L127.04 32.32ZM151 56.96C151 55.81 150.4 54.8 149.4 54.24L148.51 53.74L148.88 53.33C149.45 52.71 149.67 51.89 149.47 51.09C149.27 50.28 148.67 49.6 147.9 49.31C147.49 49.16 147.04 49.37 146.88 49.78C146.73 50.19 146.94 50.64 147.35 50.8C147.63 50.9 147.86 51.16 147.93 51.47C147.98 51.67 147.98 51.98 147.71 52.27L147.16 52.87C146.87 53.18 146.75 53.6 146.81 54.02C146.88 54.44 147.13 54.8 147.5 55L148.62 55.62C149.11 55.89 149.41 56.4 149.41 56.96C149.41 57.52 149.12 58.02 148.62 58.3L147.5 58.92C147.13 59.13 146.88 59.49 146.81 59.9C146.74 60.32 146.87 60.74 147.16 61.05L147.71 61.65C148.06 62.03 147.99 62.46 147.8 62.75C147.62 63.03 147.25 63.28 146.76 63.12L138.3 60.38V53.54L144.48 51.54C144.9 51.41 145.12 50.96 144.99 50.54C144.86 50.12 144.41 49.9 143.99 50.03L138.13 51.93C137.58 49.97 135.78 48.53 133.65 48.53H124.82L131.49 41.86L136.78 36.57C137.66 35.69 138.14 34.52 138.14 33.28C138.14 32.47 137.93 31.68 137.54 30.99L145.16 27.1C146.18 26.58 146.7 25.48 146.46 24.36C146.22 23.24 145.28 22.46 144.14 22.41L143.59 22.39L143.87 21.41C144.18 20.31 143.89 19.17 143.08 18.36C142.27 17.55 141.13 17.25 140.03 17.57L139.05 17.85L139.03 17.3C138.98 16.16 138.2 15.22 137.08 14.98C135.96 14.74 134.86 15.26 134.34 16.28L130.45 23.9C129.47 23.35 128.32 23.16 127.19 23.4C126.76 23.49 126.49 23.91 126.58 24.34C126.67 24.77 127.09 25.04 127.52 24.95C128.54 24.73 129.6 25.04 130.33 25.78L132.26 27.71C132.94 32.22 132.18 37.34 130.3 40.85L122.6 48.55H117.07L113.98 45.46C114.9 43.59 116.25 40.09 116.83 34.93L124.86 26.9C125.17 26.59 125.17 26.09 124.86 25.78C124.55 25.47 124.05 25.47 123.74 25.78L111.2 38.31C110.32 39.19 109.84 40.36 109.84 41.6C109.84 42.41 110.05 43.2 110.44 43.89L102.82 47.78C102.19 48.1 101.76 48.63 101.57 49.25C100.52 48.98 99.45 49.39 98.86 50.31C98.24 51.27 98.35 52.49 99.12 53.33L99.49 53.74L98.6 54.24C97.6 54.8 97 55.82 97 56.96C97 58.1 97.6 59.12 98.6 59.68L99.49 60.18L99.12 60.59C98.35 61.43 98.24 62.65 98.86 63.61C99.33 64.34 100.11 64.76 100.93 64.76C101.19 64.76 101.45 64.72 101.71 64.63L109.85 61.99C110.4 63.95 112.2 65.39 114.33 65.39H126.18H133.67C135.8 65.39 137.6 63.95 138.15 61.99L146.29 64.63C146.55 64.71 146.81 64.76 147.07 64.76C147.89 64.76 148.67 64.35 149.14 63.61C149.76 62.65 149.65 61.43 148.88 60.59L148.51 60.18L149.4 59.68C150.4 59.12 151 58.1 151 56.96ZM135.68 35.44L133.14 37.98C133.91 35.34 134.23 32.37 134.04 29.47L135.68 31.11C136.26 31.69 136.58 32.46 136.58 33.28C136.58 34.09 136.26 34.86 135.68 35.44ZM131.71 24.89L135.75 16.97C135.98 16.51 136.42 16.43 136.75 16.5C137.08 16.57 137.44 16.83 137.46 17.34L137.49 18.15C137.51 18.57 137.72 18.96 138.06 19.21C138.4 19.46 138.83 19.53 139.24 19.42L140.47 19.07C141.01 18.92 141.57 19.06 141.97 19.46C142.37 19.86 142.51 20.42 142.36 20.96L142.01 22.19C141.89 22.6 141.97 23.03 142.22 23.37C142.47 23.71 142.85 23.92 143.28 23.94L144.09 23.97C144.6 23.99 144.86 24.35 144.93 24.68C145 25.01 144.92 25.44 144.46 25.68L136.54 29.72L131.71 24.89ZM118.1 50.11C115.27 52.13 112.87 53.25 111.26 53.85V53.17C111.26 51.48 112.64 50.1 114.33 50.1H118.1V50.11ZM112.32 39.43L114.99 36.76C114.42 40.2 113.52 42.68 112.8 44.24L112.32 43.76C111.74 43.18 111.42 42.41 111.42 41.59C111.42 40.78 111.74 40.01 112.32 39.43ZM109.68 54.95V60.37L101.22 63.11C100.73 63.27 100.36 63.02 100.18 62.74C100 62.46 99.93 62.02 100.27 61.64L100.82 61.04C101.11 60.73 101.23 60.31 101.17 59.89C101.1 59.47 100.85 59.11 100.48 58.91L99.36 58.29C98.87 58.02 98.57 57.51 98.57 56.95C98.57 56.39 98.86 55.89 99.36 55.61L100.48 54.99C100.85 54.78 101.1 54.42 101.17 54.01C101.24 53.59 101.11 53.17 100.82 52.86L100.27 52.26C99.92 51.88 99.99 51.45 100.18 51.16C100.36 50.88 100.73 50.63 101.22 50.79L109.68 53.53V54.95ZM109.85 51.93L103.08 49.74C103.13 49.55 103.26 49.34 103.54 49.19L111.46 45.15L112.46 46.15L114.83 48.52H114.33C112.2 48.52 110.4 49.97 109.85 51.93ZM136.74 60.74C136.74 62.43 135.36 63.81 133.67 63.81H130.08C132.5 62.49 134.82 60.62 136.74 58.43V60.74ZM136.74 55.9C134.03 59.57 129.88 62.65 126.06 63.8H114.33C112.64 63.8 111.26 62.42 111.26 60.73V55.52C113.23 54.84 116.66 53.33 120.72 50.1H133.67C135.36 50.1 136.74 51.48 136.74 53.17V55.9ZM145.28 54.4C145.2 53.97 144.79 53.69 144.36 53.77L139.81 54.61C139.38 54.69 139.1 55.1 139.18 55.53C139.25 55.91 139.58 56.18 139.96 56.18C140.01 56.18 140.06 56.18 140.1 56.17L144.65 55.33C145.08 55.24 145.36 54.83 145.28 54.4ZM116.97 39.7C116.66 40.01 116.66 40.51 116.97 40.82L117.75 41.6C117.9 41.75 118.11 41.83 118.31 41.83C118.51 41.83 118.71 41.75 118.87 41.6C119.18 41.29 119.18 40.79 118.87 40.48L118.09 39.7C117.78 39.39 117.28 39.39 116.97 39.7ZM144.65 58.59L140.1 57.75C139.67 57.67 139.26 57.95 139.18 58.38C139.1 58.81 139.39 59.22 139.81 59.3L144.36 60.14C144.41 60.15 144.46 60.15 144.5 60.15C144.87 60.15 145.21 59.88 145.28 59.5C145.36 59.08 145.08 58.67 144.65 58.59ZM103.49 60.16C103.54 60.16 103.59 60.16 103.63 60.15L108.18 59.31C108.61 59.23 108.89 58.82 108.81 58.39C108.73 57.96 108.32 57.68 107.89 57.76L103.34 58.6C102.91 58.68 102.63 59.09 102.71 59.52C102.79 59.89 103.12 60.16 103.49 60.16ZM118.51 54.16C118.07 54.16 117.72 54.51 117.72 54.95V55.86C117.72 56.3 118.07 56.65 118.51 56.65C118.95 56.65 119.3 56.3 119.3 55.86V54.95C119.3 54.51 118.95 54.16 118.51 54.16ZM111.16 46.96L107.35 49.59C106.99 49.84 106.9 50.33 107.15 50.69C107.3 50.91 107.55 51.03 107.8 51.03C107.95 51.03 108.11 50.98 108.25 50.89L112.06 48.26C112.42 48.01 112.51 47.52 112.26 47.16C112.01 46.8 111.52 46.71 111.16 46.96ZM129.49 54.16C129.05 54.16 128.7 54.51 128.7 54.95V55.86C128.7 56.3 129.05 56.65 129.49 56.65C129.93 56.65 130.28 56.3 130.28 55.86V54.95C130.28 54.51 129.93 54.16 129.49 54.16ZM125.97 55.31C125.64 55.02 125.14 55.06 124.85 55.39C124.63 55.64 124.32 55.78 124 55.78C123.68 55.78 123.36 55.64 123.15 55.39C122.86 55.06 122.36 55.03 122.03 55.31C121.7 55.6 121.67 56.1 121.95 56.43C122.47 57.02 123.21 57.36 123.99 57.36C124.77 57.36 125.52 57.02 126.03 56.43C126.33 56.09 126.3 55.59 125.97 55.31Z" fill="#8F5541"/>
<path d="M117.31 110.53C119.36 110.53 121.03 108.56 121.03 106.15C121.03 103.74 119.36 101.77 117.31 101.77C115.26 101.77 113.59 103.74 113.59 106.15C113.59 108.56 115.25 110.53 117.31 110.53ZM117.31 103.35C118.49 103.35 119.45 104.61 119.45 106.15C119.45 107.69 118.49 108.95 117.31 108.95C116.13 108.95 115.17 107.69 115.17 106.15C115.17 104.61 116.13 103.35 117.31 103.35ZM112.8 129.75C113.45 129.75 114.06 129.5 114.51 129.04L117.37 126.18C118.31 125.24 118.31 123.7 117.37 122.75C116.42 121.81 114.89 121.81 113.94 122.75L111.08 125.61C110.62 126.07 110.37 126.68 110.37 127.32C110.37 127.97 110.62 128.58 111.08 129.03C111.55 129.5 112.16 129.75 112.8 129.75ZM112.21 126.73L115.07 123.87C115.23 123.71 115.45 123.62 115.67 123.62C115.89 123.62 116.1 123.7 116.26 123.87C116.59 124.2 116.59 124.73 116.26 125.06L113.4 127.92C113.24 128.08 113.03 128.17 112.81 128.17C112.59 128.17 112.37 128.08 112.22 127.92C112.06 127.76 111.97 127.55 111.97 127.33C111.96 127.1 112.05 126.89 112.21 126.73ZM146.99 131.21C146.15 127.56 143.45 124.23 139.35 121.79C137.44 120.65 135.28 119.75 132.97 119.09C133.14 118.48 133.42 117.82 133.79 117.12C134.91 115.02 134.93 112.67 133.85 110.33C133.67 109.93 133.2 109.76 132.8 109.94C132.4 110.12 132.23 110.59 132.41 110.99C133.28 112.89 133.28 114.71 132.39 116.38C131.95 117.2 131.64 117.97 131.43 118.7C129.05 118.16 126.54 117.87 123.99 117.87C121.02 117.87 118.1 118.25 115.39 118.98C115.89 117.22 117.19 115.38 119.62 114.57C123.03 113.43 124.47 109.45 124.66 106.39C124.69 105.88 124.98 105.43 125.43 105.19C125.89 104.95 126.4 104.96 126.84 105.22C128.19 106.02 129.45 107.04 130.47 108.16C130.76 108.48 131.27 108.5 131.59 108.21C131.91 107.92 131.93 107.41 131.64 107.09C130.52 105.86 129.14 104.74 127.65 103.86C126.74 103.32 125.63 103.29 124.69 103.79C123.75 104.29 123.14 105.22 123.08 106.29C122.91 109.06 121.62 112.24 119.12 113.07C117.48 113.62 116.09 114.63 115.1 116C114.36 117.03 113.85 118.26 113.65 119.51C111.85 120.11 110.16 120.88 108.63 121.79C104.53 124.23 101.84 127.56 100.99 131.21C98.67 131.94 97 133.8 97 135.96C97 138.31 98.96 140.29 101.62 140.87L102.77 143.78C103.48 145.58 104.92 147.02 106.72 147.73C106.82 147.77 106.91 147.79 107.01 147.79C107.33 147.79 107.62 147.6 107.75 147.29C107.91 146.88 107.71 146.42 107.31 146.26C105.92 145.71 104.8 144.59 104.25 143.2L103.39 141.04C104.21 141.02 105 140.88 105.75 140.61C106.36 140.39 107.02 140.39 107.63 140.61C108.43 140.9 109.28 141.05 110.16 141.05C111.04 141.05 111.89 140.9 112.69 140.61C113.3 140.39 113.96 140.39 114.57 140.61C115.37 140.9 116.22 141.05 117.1 141.05C117.98 141.05 118.83 140.9 119.63 140.61C120.24 140.39 120.9 140.39 121.51 140.61C122.31 140.9 123.16 141.05 124.04 141.05C124.92 141.05 125.77 140.9 126.57 140.61C127.18 140.39 127.84 140.39 128.45 140.61C129.25 140.9 130.1 141.05 130.98 141.05C131.86 141.05 132.71 140.9 133.51 140.61C134.12 140.39 134.78 140.39 135.39 140.61C136.19 140.9 137.04 141.05 137.92 141.05C138.8 141.05 139.65 140.9 140.45 140.61C141.06 140.39 141.72 140.39 142.33 140.61C143.07 140.88 143.87 141.02 144.69 141.04L143.83 143.2C143 145.29 141.01 146.64 138.77 146.64H110.68C110.24 146.64 109.89 146.99 109.89 147.43C109.89 147.87 110.24 148.22 110.68 148.22H138.7C141.6 148.22 144.17 146.48 145.24 143.78L146.39 140.87C149.04 140.3 151 138.31 151 135.96C151 133.8 149.33 131.94 146.99 131.21ZM109.45 123.15C113.45 120.77 118.61 119.46 124 119.46C129.39 119.46 134.55 120.77 138.55 123.15C142.01 125.21 144.36 127.93 145.28 130.89C145.12 130.88 144.96 130.87 144.79 130.87C143.91 130.87 143.06 131.02 142.26 131.31C141.65 131.53 140.99 131.53 140.38 131.31C139.58 131.02 138.73 130.87 137.85 130.87C136.97 130.87 136.12 131.02 135.32 131.31C134.71 131.53 134.05 131.53 133.44 131.31C132.64 131.02 131.79 130.87 130.91 130.87C130.03 130.87 129.18 131.02 128.38 131.31C127.78 131.53 127.11 131.53 126.5 131.31C125.7 131.02 124.85 130.87 123.97 130.87C123.09 130.87 122.24 131.02 121.44 131.31C120.83 131.53 120.17 131.53 119.56 131.31C118.76 131.02 117.91 130.87 117.03 130.87C116.15 130.87 115.3 131.02 114.5 131.31C113.89 131.53 113.23 131.53 112.62 131.31C111.82 131.02 110.97 130.87 110.09 130.87C109.21 130.87 108.36 131.02 107.56 131.31C106.95 131.53 106.29 131.53 105.68 131.31C104.88 131.02 104.03 130.87 103.15 130.87C102.99 130.87 102.83 130.88 102.66 130.89C103.64 127.93 105.99 125.21 109.45 123.15ZM145.72 139.39C145.71 139.39 145.7 139.39 145.68 139.4C145.39 139.44 145.09 139.47 144.78 139.47C144.08 139.47 143.42 139.36 142.79 139.13C142.31 138.96 141.81 138.87 141.31 138.87C140.81 138.87 140.31 138.96 139.83 139.13C139.21 139.36 138.54 139.47 137.84 139.47C137.14 139.47 136.48 139.36 135.85 139.13C134.9 138.78 133.85 138.78 132.89 139.13C132.27 139.36 131.6 139.47 130.9 139.47C130.21 139.47 129.54 139.36 128.91 139.13C127.96 138.78 126.91 138.78 125.95 139.13C125.33 139.36 124.66 139.47 123.96 139.47C123.27 139.47 122.6 139.36 121.97 139.13C121.02 138.78 119.97 138.78 119.01 139.13C118.39 139.36 117.72 139.47 117.02 139.47C116.32 139.47 115.66 139.36 115.03 139.13C114.08 138.78 113.03 138.78 112.07 139.13C111.45 139.36 110.78 139.47 110.08 139.47C109.39 139.47 108.72 139.36 108.09 139.13C107.14 138.78 106.09 138.78 105.13 139.13C104.51 139.36 103.84 139.47 103.14 139.47C102.83 139.47 102.53 139.45 102.24 139.4C102.23 139.4 102.21 139.4 102.2 139.39C100.1 139.06 98.51 137.65 98.51 135.96C98.51 134.39 99.87 133.07 101.75 132.62C101.77 132.62 101.79 132.61 101.81 132.61C102.23 132.51 102.68 132.46 103.14 132.46C103.83 132.46 104.5 132.57 105.13 132.8C106.08 133.15 107.13 133.15 108.09 132.8C108.71 132.57 109.38 132.46 110.08 132.46C110.77 132.46 111.44 132.57 112.07 132.8C113.02 133.15 114.07 133.15 115.03 132.8C115.65 132.57 116.32 132.46 117.02 132.46C117.71 132.46 118.38 132.57 119.01 132.8C119.96 133.15 121.01 133.15 121.97 132.8C122.59 132.57 123.26 132.46 123.96 132.46C124.66 132.46 125.32 132.57 125.95 132.8C126.9 133.15 127.95 133.15 128.91 132.8C129.53 132.57 130.2 132.46 130.9 132.46C131.59 132.46 132.26 132.57 132.89 132.8C133.84 133.15 134.89 133.15 135.85 132.8C136.47 132.57 137.14 132.46 137.84 132.46C138.53 132.46 139.2 132.57 139.83 132.8C140.78 133.15 141.83 133.15 142.79 132.8C143.41 132.57 144.08 132.46 144.78 132.46C145.24 132.46 145.68 132.51 146.1 132.61C146.13 132.62 146.15 132.62 146.18 132.63C148.05 133.08 149.41 134.41 149.41 135.97C149.42 137.65 147.83 139.06 145.72 139.39ZM132.34 129.75C132.99 129.75 133.6 129.5 134.05 129.04L136.91 126.18C137.37 125.72 137.62 125.11 137.62 124.47C137.62 123.82 137.37 123.21 136.91 122.76C136.45 122.3 135.84 122.05 135.2 122.05C134.55 122.05 133.94 122.3 133.49 122.76L130.63 125.62C130.17 126.08 129.92 126.69 129.92 127.33C129.92 127.98 130.17 128.59 130.63 129.04C131.09 129.49 131.69 129.75 132.34 129.75ZM131.75 126.73L134.61 123.87C134.77 123.71 134.98 123.62 135.2 123.62C135.42 123.62 135.64 123.71 135.79 123.87C135.95 124.03 136.04 124.24 136.04 124.46C136.04 124.68 135.95 124.9 135.79 125.05L132.93 127.91C132.77 128.07 132.56 128.16 132.34 128.16C132.12 128.16 131.9 128.07 131.75 127.91C131.59 127.75 131.5 127.54 131.5 127.32C131.5 127.1 131.59 126.89 131.75 126.73ZM122 130.21C122.65 130.21 123.26 129.96 123.71 129.5L127.71 125.5C128.17 125.04 128.42 124.43 128.42 123.79C128.42 123.15 128.17 122.53 127.71 122.08C127.25 121.62 126.64 121.37 126 121.37C125.35 121.37 124.74 121.62 124.29 122.08L120.29 126.08C119.83 126.54 119.58 127.15 119.58 127.79C119.58 128.43 119.83 129.05 120.29 129.5C120.74 129.96 121.35 130.21 122 130.21ZM121.4 127.19L125.4 123.19C125.56 123.03 125.77 122.94 125.99 122.94C126.21 122.94 126.43 123.03 126.58 123.19C126.73 123.35 126.83 123.56 126.83 123.78C126.83 124 126.74 124.22 126.58 124.37L122.58 128.37C122.42 128.53 122.21 128.62 121.99 128.62C121.77 128.62 121.55 128.53 121.4 128.37C121.24 128.21 121.15 128 121.15 127.78C121.15 127.56 121.25 127.35 121.4 127.19Z" fill="#8F5541"/>
</svg>
