<svg width="30" height="30" viewBox="0 0 30 30" fill="none" xmlns="http://www.w3.org/2000/svg">
<path d="M9.73989 22.45H20.2699C21.4699 22.45 22.4499 21.47 22.4499 20.27V9.74C22.4499 8.54 21.4699 7.56 20.2699 7.56H9.73989C8.53989 7.56 7.55989 8.54 7.55989 9.74V20.27C7.54989 21.47 8.52989 22.45 9.73989 22.45ZM8.42989 9.74C8.42989 9.02 9.01989 8.43 9.73989 8.43H20.2699C20.9899 8.43 21.5799 9.02 21.5799 9.74V20.27C21.5799 20.99 20.9899 21.58 20.2699 21.58H9.73989C9.01989 21.58 8.42989 20.99 8.42989 20.27V9.74Z" fill="#8F5541"/>
<path d="M14.9998 18.93C17.1598 18.93 18.9298 17.17 18.9298 15C18.9298 12.83 17.1698 11.07 14.9998 11.07C12.8298 11.07 11.0698 12.83 11.0698 15C11.0698 17.17 12.8398 18.93 14.9998 18.93ZM14.9998 11.95C16.6798 11.95 18.0498 13.32 18.0498 15C18.0498 16.68 16.6798 18.05 14.9998 18.05C13.3198 18.05 11.9498 16.68 11.9498 15C11.9498 13.32 13.3198 11.95 14.9998 11.95Z" fill="#8F5541"/>
<path d="M19.3598 11.95C20.0798 11.95 20.6698 11.36 20.6698 10.64C20.6698 9.92002 20.0798 9.33002 19.3598 9.33002C18.6398 9.33002 18.0498 9.92002 18.0498 10.64C18.0498 11.36 18.6398 11.95 19.3598 11.95ZM19.3598 10.2C19.5998 10.2 19.7998 10.4 19.7998 10.64C19.7998 10.88 19.5998 11.08 19.3598 11.08C19.1198 11.08 18.9198 10.88 18.9198 10.64C18.9198 10.4 19.1198 10.2 19.3598 10.2Z" fill="#8F5541"/>
</svg>
