<svg width="30" height="30" viewBox="0 0 30 30" fill="none" xmlns="http://www.w3.org/2000/svg">
<path d="M9.73989 22.45H14.5999V17.16H12.8499V15.41H14.5999V13.23C14.5999 12.03 15.5799 11.05 16.7799 11.05H18.9599V12.8H17.2099C16.7299 12.8 16.3399 13.19 16.3399 13.67V15.42H18.8799L18.5899 17.17H16.3399V22.46H20.2699C21.4699 22.46 22.4499 21.48 22.4499 20.28V9.74C22.4499 8.54 21.4699 7.56 20.2699 7.56H9.73989C8.53989 7.56 7.55989 8.54 7.55989 9.74V20.27C7.54989 21.47 8.52989 22.45 9.73989 22.45ZM8.42989 9.74C8.42989 9.02 9.01989 8.43 9.73989 8.43H20.2699C20.9899 8.43 21.5799 9.02 21.5799 9.74V20.27C21.5799 20.99 20.9899 21.58 20.2699 21.58H17.2199V18.03H19.3299L19.9099 14.54H17.2099V13.67H19.8299V10.18H16.7799C15.0999 10.18 13.7299 11.55 13.7299 13.23V14.54H11.9799V18.03H13.7299V21.58H9.73989C9.01989 21.58 8.42989 20.99 8.42989 20.27V9.74Z" fill="#8F5541"/>
</svg>
