<svg width="84" height="84" fill="none" xmlns="http://www.w3.org/2000/svg"><rect width="84" height="84" rx="42" fill="#F6D8CB"/><path d="M60.014 52.889l-9.553-4.776A2.63 2.63 0 0 1 49 45.748v-3.381c.229-.28.47-.599.719-.951a22.886 22.886 0 0 0 2.954-5.799A3.968 3.968 0 0 0 55 32v-4c0-.963-.36-1.896-1-2.625v-5.319c.056-.55.276-3.824-2.092-6.525C49.854 11.188 46.521 10 42 10s-7.854 1.188-9.908 3.53c-2.368 2.701-2.148 5.976-2.092 6.526v5.319c-.64.729-1 1.662-1 2.625v4c0 1.217.553 2.352 1.497 3.109.916 3.627 2.833 6.36 3.503 7.237v3.309c0 .968-.528 1.856-1.377 2.32l-8.921 4.866A9.018 9.018 0 0 0 19 60.762V64c0 4.746 15.045 6 23 6s23-1.254 23-6v-3.043a8.973 8.973 0 0 0-4.986-8.068zM63 64c0 1.357-7.412 4-21 4-13.588 0-21-2.643-21-4v-3.238a7.016 7.016 0 0 1 3.659-6.164l8.921-4.866A4.644 4.644 0 0 0 36 45.655v-4.019l-.233-.278c-.024-.029-2.475-2.994-3.41-7.065l-.091-.396-.341-.22A1.995 1.995 0 0 1 31 32v-4c0-.561.238-1.084.67-1.475l.33-.297V20l-.009-.131c-.003-.027-.343-2.799 1.605-5.021C35.253 12.958 38.081 12 42 12c3.905 0 6.727.951 8.386 2.828 1.947 2.201 1.625 5.017 1.623 5.041L52 26.228l.33.298c.432.39.67.913.67 1.474v4c0 .873-.572 1.637-1.422 1.899l-.498.153-.16.495a20.934 20.934 0 0 1-2.834 5.713c-.297.421-.586.794-.837 1.079l-.249.284v4.125c0 1.77.983 3.361 2.566 4.153l9.553 4.776A6.982 6.982 0 0 1 63 60.957V64z" fill="#8F5541"/></svg>