<svg width="30" height="40" fill="none" xmlns="http://www.w3.org/2000/svg"><path d="M30 15c0 8.284-15 25-15 25S0 23.284 0 15C0 6.716 6.716 0 15 0c8.284 0 15 6.716 15 15z" fill="#8F5541"/><path d="M22.946 15.306c.58 0 1.054-.473 1.054-1.053v-3.239c0-.58-.474-1.053-1.054-1.053h-1.628a1.453 1.453 0 0 0-1.125-1.678 26.05 26.05 0 0 0-.691-.142.255.255 0 1 0-.094.502c.223.042.454.09.677.14a.95.95 0 0 1 .617.443.937.937 0 0 1 .103.739h-7.547c0-.02.007-.036.007-.055V8.27a23.98 23.98 0 0 1 4.89.169.256.256 0 0 0 .072-.505 24.41 24.41 0 0 0-2.43-.21C15.763 6.767 14.9 6 13.846 6c-.476 0-.937.159-1.294.447a.482.482 0 0 1-.421.09 1.731 1.731 0 0 0-.448-.058c-.892 0-1.618.664-1.618 1.48 0 .075.006.15.02.22-.166.033-.332.069-.494.105a1.446 1.446 0 0 0-1.125 1.677h-1.41c-.581 0-1.055.473-1.055 1.053v.972c0 .58.474 1.052 1.054 1.052h.483v5.241h-.376a.922.922 0 0 0-.921.92v.881c0 .505.412.92.921.92h14.274a.255.255 0 0 0 .256-.256.255.255 0 0 0-.256-.256H7.165a.405.405 0 0 1-.406-.405v-.88c0-.224.182-.405.405-.405H22.84c.224 0 .405.18.405.404v.881a.405.405 0 0 1-.405.405h-.224a.255.255 0 0 0-.256.256c0 .143.113.256.256.256h.224a.922.922 0 0 0 .921-.92v-.88a.922.922 0 0 0-.921-.92h-.376v-2.974h.483zM11.682 6.988c.107 0 .214.013.318.042.302.081.63.01.872-.188a1.55 1.55 0 0 1 .97-.333c.766 0 1.395.53 1.44 1.198-.765-.013-1.53.01-2.293.071a.258.258 0 0 0-.237.256V9.91a.746.746 0 0 1-1.492 0V8.274a.252.252 0 0 0-.09-.195.255.255 0 0 0-.208-.058c-.126.02-.253.042-.38.065a.827.827 0 0 1-.009-.126c.003-.535.5-.972 1.11-.972zM9.084 9.223a.96.96 0 0 1 .617-.444c.246-.055.496-.104.749-.152h.006c.1-.02.198-.036.299-.055v1.334c0 .02.003.036.006.055H8.984a.936.936 0 0 1 .1-.738zm5.053 8.541v.515H8.053v-5.241c.302.013.542.26.542.564v2.591c0 .58.473 1.053 1.054 1.053h.973c.58 0 1.054-.473 1.054-1.053v-.903l2.48 2.332a.68.68 0 0 0-.019.142zm1.21.515h-.697v-.515c0-.006.006-.013.013-.013h.671c.007 0 .013.007.013.013v.515zm-.013-1.04h-.671c-.052 0-.1.007-.146.023l-2.845-2.672v-.985a.57.57 0 0 1 .568-.567h.973a.57.57 0 0 1 .568.567c0 .58.473 1.053 1.054 1.053h.648c.58 0 1.054-.473 1.054-1.053a.57.57 0 0 1 .568-.567h2.77l-4.395 4.22a.532.532 0 0 0-.146-.018zm6.613 1.04h-6.084v-.515a.498.498 0 0 0-.02-.14l4.777-4.586h.059a.57.57 0 0 1 .568.567v.648c0 .457.295.845.703.988v3.038h-.003zm.35-3.46a.57.57 0 0 1-.567-.566v-.648c0-.58-.474-1.052-1.054-1.052h-3.568c-.58 0-1.054.472-1.054 1.052a.57.57 0 0 1-.567.567h-.65a.57.57 0 0 1-.567-.567c0-.58-.473-1.052-1.054-1.052h-.973c-.58 0-1.054.472-1.054 1.052v2.591a.57.57 0 0 1-.567.567h-.973a.57.57 0 0 1-.568-.567v-2.59c0-.58-.473-1.053-1.054-1.053h-.973a.57.57 0 0 1-.568-.567v-.972a.57.57 0 0 1 .568-.567h3.824a1.26 1.26 0 0 0 1.129.716c.499 0 .927-.295 1.128-.716h9.81a.57.57 0 0 1 .569.567v3.24a.57.57 0 0 1-.568.566h-.649z" fill="#fff"/></svg>