<svg width="164" height="165" fill="none" xmlns="http://www.w3.org/2000/svg"><path d="M64.5 46.75c1.79 0 3.25-1.46 3.25-3.25v-10c0-1.79-1.46-3.25-3.25-3.25h-5.02c.18-1.07.01-2.15-.56-3.09a4.482 4.482 0 0 0-2.91-2.09c-.71-.16-1.42-.3-2.13-.44-.43-.08-.84.2-.92.63-.08.43.2.84.63.92.69.13 1.4.28 2.09.43.8.18 1.48.66 1.9 1.37.42.69.53 1.5.32 2.28H34.63c0-.06.02-.11.02-.17v-5.06c5.02-.34 10.09-.17 15.08.52a.789.789 0 0 0 .22-1.56c-2.48-.34-4.99-.56-7.49-.65-.11-2.95-2.77-5.32-6.02-5.32-1.47 0-2.89.49-3.99 1.38-.36.29-.85.4-1.3.28-.45-.12-.91-.18-1.38-.18-2.75 0-4.99 2.05-4.99 4.57 0 .23.02.46.06.68-.51.1-1.02.21-1.52.32a4.515 4.515 0 0 0-2.91 2.09c-.57.94-.74 2.02-.56 3.09H15.5c-1.79 0-3.25 1.46-3.25 3.25v3c0 1.79 1.46 3.25 3.25 3.25h1.49v16.18h-1.16c-1.56 0-2.84 1.27-2.84 2.84v2.72c0 1.56 1.27 2.84 2.84 2.84h44.01c.44 0 .79-.35.79-.79 0-.44-.35-.79-.79-.79h-44c-.69 0-1.25-.56-1.25-1.25v-2.72c0-.69.56-1.25 1.25-1.25h48.33c.69 0 1.25.56 1.25 1.25v2.72c0 .69-.56 1.25-1.25 1.25h-.69c-.44 0-.79.35-.79.79 0 .44.35.79.79.79h.69c1.56 0 2.84-1.27 2.84-2.84v-2.72c0-1.56-1.27-2.84-2.84-2.84h-1.16v-9.18h1.49zM29.77 21.07c.33 0 .66.04.98.13.93.25 1.94.03 2.69-.58.82-.66 1.88-1.03 2.99-1.03 2.36 0 4.3 1.64 4.44 3.7-2.36-.04-4.72.03-7.07.22-.41.03-.73.38-.73.79v5.79a2.3 2.3 0 0 1-4.6 0v-5.05c0-.23-.1-.45-.28-.6a.787.787 0 0 0-.64-.18c-.39.06-.78.13-1.17.2-.02-.13-.03-.26-.03-.39.01-1.65 1.54-3 3.42-3zm-8.01 6.9c.42-.7 1.1-1.19 1.9-1.37.76-.17 1.53-.32 2.31-.47h.02c.31-.06.61-.11.92-.17v4.12c0 .06.01.11.02.17h-5.48c-.22-.78-.1-1.59.31-2.28zm15.58 26.37v1.59H18.58V39.75c.93.04 1.67.8 1.67 1.74v8c0 1.79 1.46 3.25 3.25 3.25h3c1.79 0 3.25-1.46 3.25-3.25V46.7l7.65 7.2c-.03.14-.06.29-.06.44zm3.73 1.59h-2.15v-1.59c0-.02.02-.04.04-.04h2.07c.02 0 .04.02.04.04v1.59zm-.04-3.21h-2.07c-.16 0-.31.02-.45.07l-8.77-8.25V41.5c0-.96.79-1.75 1.75-1.75h3c.96 0 1.75.79 1.75 1.75 0 1.79 1.46 3.25 3.25 3.25h2c1.79 0 3.25-1.46 3.25-3.25 0-.96.79-1.75 1.75-1.75h8.54L41.48 52.78c-.14-.04-.29-.06-.45-.06zm20.39 3.21H42.66v-1.59c0-.15-.02-.29-.06-.43l14.73-14.16h.18c.96 0 1.75.79 1.75 1.75v2c0 1.41.91 2.61 2.17 3.05v9.38h-.01zm1.08-10.68c-.96 0-1.75-.79-1.75-1.75v-2c0-1.79-1.46-3.25-3.25-3.25h-11c-1.79 0-3.25 1.46-3.25 3.25 0 .96-.79 1.75-1.75 1.75h-2c-.96 0-1.75-.79-1.75-1.75 0-1.79-1.46-3.25-3.25-3.25h-3c-1.79 0-3.25 1.46-3.25 3.25v8c0 .96-.79 1.75-1.75 1.75h-3c-.96 0-1.75-.79-1.75-1.75v-8c0-1.79-1.46-3.25-3.25-3.25h-3c-.96 0-1.75-.79-1.75-1.75v-3c0-.96.79-1.75 1.75-1.75h11.79c.63 1.3 1.95 2.21 3.48 2.21 1.54 0 2.86-.91 3.48-2.21H64.5c.96 0 1.75.79 1.75 1.75v10c0 .96-.79 1.75-1.75 1.75h-2zm-27.31 58.73a.76.76 0 1 0-1.52 0 .76.76 0 0 0 1.52 0zm-3.48 5.92c-.44 0-.79.35-.79.79v1.4c0 .44.35.79.79.79.44 0 .79-.35.79-.79v-1.4c0-.43-.36-.79-.79-.79zm-4.34 16.12a.76.76 0 1 0 .76-.76.753.753 0 0 0-.76.76zm30.76-4.21H53.3c2.48-2.24 3.78-5.22 3.78-8.74 0-4.12-1.79-7.94-5.04-10.76C48.84 99.53 44.56 98 40 98c-4.77 0-9.35 1.74-12.54 4.77-.32.3-.33.8-.03 1.12.3.32.8.33 1.12.03 2.91-2.76 7.08-4.34 11.46-4.34 4.18 0 8.09 1.39 11 3.92 2.9 2.52 4.5 5.92 4.5 9.57 0 3.77-1.72 6.83-4.98 8.86a.788.788 0 0 0 .42 1.46h4.98c-.83.97-.78 2.44.14 3.36.17.17.26.4.26.64a.9.9 0 0 1-.26.64c-.92.92-.96 2.39-.14 3.36h-4.42c-.75 0-1.45.37-1.88.98-.43.61-.53 1.4-.28 2.1l2.85 7.84c-.55-.2-1.15-.21-1.71 0-.62.23-1.12.68-1.4 1.28-.21.45-.75.65-1.2.44a2.494 2.494 0 0 0-3.21 1.02l-.9-2.48a4.006 4.006 0 0 0-3.76-2.63 4.01 4.01 0 0 0-3.76 2.63l-.9 2.48a2.49 2.49 0 0 0-3.21-1.02c-.45.21-.99.01-1.2-.44-.28-.6-.78-1.06-1.4-1.28-.56-.2-1.16-.2-1.71 0l2.85-7.84c.26-.7.15-1.49-.28-2.1-.43-.61-1.13-.98-1.88-.98h-4.42c.83-.97.78-2.44-.14-3.36a.9.9 0 0 1-.26-.64.9.9 0 0 1 .26-.64c.92-.92.96-2.39.14-3.36h4.98a.788.788 0 1 0 .42-1.46c-3.26-2.03-4.98-5.09-4.98-8.86 0-2.31.62-4.49 1.85-6.48.23-.37.11-.86-.26-1.09a.786.786 0 0 0-1.09.26 13.9 13.9 0 0 0-2.08 7.31c0 3.52 1.3 6.5 3.78 8.74H21.9c-3.08 0-5.58 2.5-5.58 5.58s2.5 5.58 5.58 5.58h6.64c.24 0 .45.11.59.31.14.19.17.43.09.66l-3.5 9.61c0 .01-.01.02-.01.02l-.3.83a5.55 5.55 0 0 0 .19 4.27 5.56 5.56 0 0 0 3.15 2.89c1.4.51 2.92.44 4.27-.19a5.56 5.56 0 0 0 2.89-3.15l1.86-5.1c.35-.95 1.26-1.6 2.28-1.6 1.02 0 1.93.64 2.28 1.6l1.85 5.1c.51 1.4 1.53 2.52 2.89 3.15a5.499 5.499 0 0 0 4.26.19 5.55 5.55 0 0 0 2.5-1.82c.27-.34.2-.84-.14-1.11a.795.795 0 0 0-1.11.14c-.46.59-1.08 1.05-1.79 1.3-1 .37-2.09.32-3.06-.13-.97-.45-1.7-1.25-2.07-2.26l-.19-.53.53-1.24c.21-.45.75-.65 1.2-.44 1.24.58 2.72.04 3.3-1.2.1-.22.28-.38.51-.47.23-.08.47-.07.69.03l1.24.58.19.53c.11.31.19.62.22.94.04.4.39.7.78.7h.09c.43-.05.75-.44.7-.87-.05-.45-.15-.89-.31-1.31l-.3-.83c0-.01-.01-.02-.01-.02l-3.5-9.61a.73.73 0 0 1 .68-.97h6.64c3.08 0 5.58-2.5 5.58-5.58.01-3.07-2.49-5.58-5.57-5.58zm-35.29 7.34c.35.35.35.93 0 1.28l-.97.97a3.999 3.999 0 1 1 0-8l.97.97c.35.35.35.93 0 1.28-.47.47-.73 1.09-.73 1.76.01.65.26 1.27.73 1.74zm11.54 18.53a4 4 0 0 1-5.13 2.39 4 4 0 0 1-2.39-5.13l.19-.53 1.24-.58c.22-.1.46-.11.69-.03.23.08.41.25.51.47a2.486 2.486 0 0 0 3.3 1.2c.45-.21.99-.01 1.2.44l.58 1.24-.19.53zm23.75-16.28l-.97-.97a.911.911 0 0 1 0-1.28c.47-.47.73-1.09.73-1.76 0-.66-.26-1.29-.73-1.76a.911.911 0 0 1 0-1.28l.97-.97c2.21 0 4 1.79 4 4 0 2.22-1.8 4.02-4 4.02zm-26.42 9.77a.76.76 0 1 0 .76-.76c-.42 0-.76.33-.76.76zm16.58-28.29c.44 0 .79-.35.79-.79v-1.4c0-.44-.35-.79-.79-.79-.44 0-.79.35-.79.79v1.4c0 .44.36.79.79.79zm-2.71-7.83a.76.76 0 1 0 0 1.52.76.76 0 0 0 0-1.52zM40 129.38a3.15 3.15 0 1 0 0-6.3 3.15 3.15 0 0 0 0 6.3zm0-4.72c.87 0 1.57.71 1.57 1.57 0 .87-.71 1.57-1.57 1.57-.86 0-1.57-.71-1.57-1.57 0-.87.7-1.57 1.57-1.57zm11.68 3.93a.76.76 0 1 0-.76.76c.42.01.76-.34.76-.76zM40 116.31a3.15 3.15 0 0 0 3.15-3.15v-1.72c0-.79-.64-1.43-1.43-1.43h-3.43c-.79 0-1.43.64-1.43 1.43v1.72a3.135 3.135 0 0 0 3.14 3.15zm-1.57-4.72h3.15v1.57c0 .87-.71 1.57-1.57 1.57-.86 0-1.57-.71-1.57-1.57v-1.57h-.01zM40 136.97a3.15 3.15 0 1 0 0-6.3 3.15 3.15 0 0 0 0 6.3zm0-4.72c.87 0 1.57.71 1.57 1.57 0 .86-.71 1.57-1.57 1.57-.86 0-1.57-.71-1.57-1.57 0-.86.7-1.57 1.57-1.57zm6.34 5.9a.76.76 0 1 0 1.52 0 .76.76 0 0 0-1.52 0zm76.3-104l-1.92 1.92c-.25.25-.38.57-.38.92 0 .35.14.67.38.92l.96.96c.52.52 1.2.78 1.88.78.68 0 1.36-.26 1.88-.78a2.656 2.656 0 0 0 0-3.76l-.96-.96c-.51-.5-1.33-.5-1.84 0zm1.68 3.61c-.42.42-1.11.42-1.53 0l-.76-.76 1.53-1.53.76.76c.42.42.42 1.11 0 1.53zm-20.97 17.56l4.55.84c.05.01.1.01.14.01a.8.8 0 0 0 .78-.65.793.793 0 0 0-.63-.92l-4.55-.84a.793.793 0 0 0-.29 1.56zm37.3-30.03c.36-.25.45-.74.2-1.1a.788.788 0 0 0-1.1-.2l-3.81 2.63a.788.788 0 0 0 .45 1.44c.15 0 .31-.05.45-.14l3.81-2.63zm-3.41-4.71a.788.788 0 0 0-1.1.2l-2.63 3.81a.788.788 0 0 0 .65 1.24c.25 0 .5-.12.65-.34l2.63-3.81a.78.78 0 0 0-.2-1.1zm-10.2 11.74c.15.15.36.23.56.23.2 0 .4-.08.56-.23a.79.79 0 0 0 0-1.12l-.78-.78a.79.79 0 0 0-1.12 0 .79.79 0 0 0 0 1.12l.78.78zM151 56.96c0-1.15-.6-2.16-1.6-2.72l-.89-.5.37-.41c.57-.62.79-1.44.59-2.24-.2-.81-.8-1.49-1.57-1.78a.8.8 0 0 0-1.02.47.8.8 0 0 0 .47 1.02c.28.1.51.36.58.67.05.2.05.51-.22.8l-.55.6c-.29.31-.41.73-.35 1.15.07.42.32.78.69.98l1.12.62c.49.27.79.78.79 1.34s-.29 1.06-.79 1.34l-1.12.62c-.37.21-.62.57-.69.98-.07.42.06.84.35 1.15l.55.6c.35.38.28.81.09 1.1-.18.28-.55.53-1.04.37l-8.46-2.74v-6.84l6.18-2c.42-.13.64-.58.51-1a.792.792 0 0 0-1-.51l-5.86 1.9a4.661 4.661 0 0 0-4.48-3.4h-8.83l6.67-6.67 5.29-5.29c.88-.88 1.36-2.05 1.36-3.29 0-.81-.21-1.6-.6-2.29l7.62-3.89a2.459 2.459 0 0 0 1.3-2.74 2.452 2.452 0 0 0-2.32-1.95l-.55-.02.28-.98c.31-1.1.02-2.24-.79-3.05a3.055 3.055 0 0 0-3.05-.79l-.98.28-.02-.55a2.452 2.452 0 0 0-1.95-2.32c-1.12-.24-2.22.28-2.74 1.3l-3.89 7.62c-.98-.55-2.13-.74-3.26-.5a.79.79 0 0 0-.61.94c.09.43.51.7.94.61 1.02-.22 2.08.09 2.81.83l1.93 1.93c.68 4.51-.08 9.63-1.96 13.14l-7.7 7.7h-5.53l-3.09-3.09c.92-1.87 2.27-5.37 2.85-10.53l8.03-8.03a.79.79 0 0 0 0-1.12.79.79 0 0 0-1.12 0L111.2 38.31c-.88.88-1.36 2.05-1.36 3.29 0 .81.21 1.6.6 2.29l-7.62 3.89c-.63.32-1.06.85-1.25 1.47-1.05-.27-2.12.14-2.71 1.06-.62.96-.51 2.18.26 3.02l.37.41-.89.5c-1 .56-1.6 1.58-1.6 2.72 0 1.14.6 2.16 1.6 2.72l.89.5-.37.41c-.77.84-.88 2.06-.26 3.02.47.73 1.25 1.15 2.07 1.15.26 0 .52-.04.78-.13l8.14-2.64c.55 1.96 2.35 3.4 4.48 3.4h19.34c2.13 0 3.93-1.44 4.48-3.4l8.14 2.64c.26.08.52.13.78.13.82 0 1.6-.41 2.07-1.15.62-.96.51-2.18-.26-3.02l-.37-.41.89-.5c1-.56 1.6-1.58 1.6-2.72zm-15.32-21.52l-2.54 2.54c.77-2.64 1.09-5.61.9-8.51l1.64 1.64c.58.58.9 1.35.9 2.17 0 .81-.32 1.58-.9 2.16zm-3.97-10.55l4.04-7.92c.23-.46.67-.54 1-.47.33.07.69.33.71.84l.03.81c.02.42.23.81.57 1.06.34.25.77.32 1.18.21l1.23-.35c.54-.15 1.1-.01 1.5.39.4.4.54.96.39 1.5l-.35 1.23c-.12.41-.04.84.21 1.18.25.34.63.55 1.06.57l.81.03c.51.02.77.38.84.71.07.33-.01.76-.47 1l-7.92 4.04-4.83-4.83zM118.1 50.11c-2.83 2.02-5.23 3.14-6.84 3.74v-.68c0-1.69 1.38-3.07 3.07-3.07h3.77v.01zm-5.78-10.68l2.67-2.67c-.57 3.44-1.47 5.92-2.19 7.48l-.48-.48c-.58-.58-.9-1.35-.9-2.17 0-.81.32-1.58.9-2.16zm-2.64 15.52v5.42l-8.46 2.74c-.49.16-.86-.09-1.04-.37a.886.886 0 0 1 .09-1.1l.55-.6c.29-.31.41-.73.35-1.15-.07-.42-.32-.78-.69-.98l-1.12-.62c-.49-.27-.79-.78-.79-1.34s.29-1.06.79-1.34l1.12-.62c.37-.21.62-.57.69-.98.07-.42-.06-.84-.35-1.15l-.55-.6c-.35-.38-.28-.81-.09-1.1.18-.28.55-.53 1.04-.37l8.46 2.74v1.42zm.17-3.02l-6.77-2.19c.05-.19.18-.4.46-.55l7.92-4.04 1 1 2.37 2.37h-.5c-2.13 0-3.93 1.45-4.48 3.41zm26.89 8.81c0 1.69-1.38 3.07-3.07 3.07h-3.59c2.42-1.32 4.74-3.19 6.66-5.38v2.31zm0-4.84c-2.71 3.67-6.86 6.75-10.68 7.9h-11.73c-1.69 0-3.07-1.38-3.07-3.07v-5.21c1.97-.68 5.4-2.19 9.46-5.42h12.95c1.69 0 3.07 1.38 3.07 3.07v2.73zm8.54-1.5a.786.786 0 0 0-.92-.63l-4.55.84a.793.793 0 1 0 .15 1.57c.05 0 .1 0 .14-.01l4.55-.84c.43-.09.71-.5.63-.93zm-28.31-14.7a.79.79 0 0 0 0 1.12l.78.78c.15.15.36.23.56.23.2 0 .4-.08.56-.23a.79.79 0 0 0 0-1.12l-.78-.78a.79.79 0 0 0-1.12 0zm27.68 18.89l-4.55-.84c-.43-.08-.84.2-.92.63-.08.43.21.84.63.92l4.55.84c.05.01.1.01.14.01a.8.8 0 0 0 .78-.65c.08-.42-.2-.83-.63-.91zm-41.16 1.57c.05 0 .1 0 .14-.01l4.55-.84c.43-.08.71-.49.63-.92a.786.786 0 0 0-.92-.63l-4.55.84c-.43.08-.71.49-.63.92.08.37.41.64.78.64zm15.02-6c-.44 0-.79.35-.79.79v.91c0 .44.35.79.79.79.44 0 .79-.35.79-.79v-.91c0-.44-.35-.79-.79-.79zm-7.35-7.2l-3.81 2.63a.788.788 0 0 0 .45 1.44c.15 0 .31-.05.45-.14l3.81-2.63c.36-.25.45-.74.2-1.1a.788.788 0 0 0-1.1-.2zm18.33 7.2c-.44 0-.79.35-.79.79v.91c0 .44.35.79.79.79.44 0 .79-.35.79-.79v-.91c0-.44-.35-.79-.79-.79zm-3.52 1.15a.793.793 0 0 0-1.12.08 1.119 1.119 0 0 1-1.7 0 .802.802 0 0 0-1.12-.08c-.33.29-.36.79-.08 1.12.52.59 1.26.93 2.04.93s1.53-.34 2.04-.93c.3-.34.27-.84-.06-1.12zm-8.66 55.22c2.05 0 3.72-1.97 3.72-4.38s-1.67-4.38-3.72-4.38c-2.05 0-3.72 1.97-3.72 4.38s1.66 4.38 3.72 4.38zm0-7.18c1.18 0 2.14 1.26 2.14 2.8 0 1.54-.96 2.8-2.14 2.8-1.18 0-2.14-1.26-2.14-2.8 0-1.54.96-2.8 2.14-2.8zm-4.51 26.4c.65 0 1.26-.25 1.71-.71l2.86-2.86c.94-.94.94-2.48 0-3.43-.95-.94-2.48-.94-3.43 0l-2.86 2.86c-.46.46-.71 1.07-.71 1.71 0 .65.25 1.26.71 1.71.47.47 1.08.72 1.72.72zm-.59-3.02l2.86-2.86c.16-.16.38-.25.6-.25.22 0 .43.08.59.25.33.33.33.86 0 1.19l-2.86 2.86c-.16.16-.37.25-.59.25-.22 0-.44-.09-.59-.25a.834.834 0 0 1-.25-.59c-.01-.23.08-.44.24-.6zm34.78 4.48c-.84-3.65-3.54-6.98-7.64-9.42-1.91-1.14-4.07-2.04-6.38-2.7.17-.61.45-1.27.82-1.97 1.12-2.1 1.14-4.45.06-6.79a.79.79 0 0 0-1.05-.39.79.79 0 0 0-.39 1.05c.87 1.9.87 3.72-.02 5.39a11.8 11.8 0 0 0-.96 2.32c-2.38-.54-4.89-.83-7.44-.83-2.97 0-5.89.38-8.6 1.11.5-1.76 1.8-3.6 4.23-4.41 3.41-1.14 4.85-5.12 5.04-8.18.03-.51.32-.96.77-1.2.46-.24.97-.23 1.41.03 1.35.8 2.61 1.82 3.63 2.94a.8.8 0 0 0 1.12.05.8.8 0 0 0 .05-1.12c-1.12-1.23-2.5-2.35-3.99-3.23-.91-.54-2.02-.57-2.96-.07-.94.5-1.55 1.43-1.61 2.5-.17 2.77-1.46 5.95-3.96 6.78-1.64.55-3.03 1.56-4.02 2.93a8.354 8.354 0 0 0-1.45 3.51c-1.8.6-3.49 1.37-5.02 2.28-4.1 2.44-6.79 5.77-7.64 9.42-2.32.73-3.99 2.59-3.99 4.75 0 2.35 1.96 4.33 4.62 4.91l1.15 2.91c.71 1.8 2.15 3.24 3.95 3.95.1.04.19.06.29.06a.8.8 0 0 0 .74-.5.797.797 0 0 0-.44-1.03 5.478 5.478 0 0 1-3.06-3.06l-.86-2.16c.82-.02 1.61-.16 2.36-.43a2.76 2.76 0 0 1 1.88 0c.8.29 1.65.44 2.53.44.88 0 1.73-.15 2.53-.44a2.76 2.76 0 0 1 1.88 0c.8.29 1.65.44 2.53.44.88 0 1.73-.15 2.53-.44a2.76 2.76 0 0 1 1.88 0c.8.29 1.65.44 2.53.44.88 0 1.73-.15 2.53-.44a2.76 2.76 0 0 1 1.88 0c.8.29 1.65.44 2.53.44.88 0 1.73-.15 2.53-.44a2.76 2.76 0 0 1 1.88 0c.8.29 1.65.44 2.53.44.88 0 1.73-.15 2.53-.44a2.76 2.76 0 0 1 1.88 0c.74.27 1.54.41 2.36.43l-.86 2.16a5.422 5.422 0 0 1-5.06 3.44h-28.09c-.44 0-.79.35-.79.79 0 .44.35.79.79.79h28.02c2.9 0 5.47-1.74 6.54-4.44l1.15-2.91c2.65-.57 4.61-2.56 4.61-4.91 0-2.16-1.67-4.02-4.01-4.75zm-37.54-8.06c4-2.38 9.16-3.69 14.55-3.69 5.39 0 10.55 1.31 14.55 3.69 3.46 2.06 5.81 4.78 6.73 7.74-.16-.01-.32-.02-.49-.02-.88 0-1.73.15-2.53.44-.61.22-1.27.22-1.88 0-.8-.29-1.65-.44-2.53-.44-.88 0-1.73.15-2.53.44-.61.22-1.27.22-1.88 0-.8-.29-1.65-.44-2.53-.44-.88 0-1.73.15-2.53.44-.6.22-1.27.22-1.88 0-.8-.29-1.65-.44-2.53-.44-.88 0-1.73.15-2.53.44-.61.22-1.27.22-1.88 0-.8-.29-1.65-.44-2.53-.44-.88 0-1.73.15-2.53.44-.61.22-1.27.22-1.88 0-.8-.29-1.65-.44-2.53-.44-.88 0-1.73.15-2.53.44-.61.22-1.27.22-1.88 0-.8-.29-1.65-.44-2.53-.44-.16 0-.32.01-.49.02.98-2.96 3.33-5.68 6.79-7.74zm36.27 16.24c-.01 0-.02 0-.04.01-.29.04-.59.07-.9.07-.7 0-1.36-.11-1.99-.34-.48-.17-.98-.26-1.48-.26s-1 .09-1.48.26a5.7 5.7 0 0 1-1.99.34c-.7 0-1.36-.11-1.99-.34-.95-.35-2-.35-2.96 0a5.7 5.7 0 0 1-1.99.34c-.69 0-1.36-.11-1.99-.34-.95-.35-2-.35-2.96 0a5.7 5.7 0 0 1-1.99.34c-.69 0-1.36-.11-1.99-.34-.95-.35-2-.35-2.96 0a5.7 5.7 0 0 1-1.99.34c-.7 0-1.36-.11-1.99-.34-.95-.35-2-.35-2.96 0a5.7 5.7 0 0 1-1.99.34c-.69 0-1.36-.11-1.99-.34-.95-.35-2-.35-2.96 0a5.7 5.7 0 0 1-1.99.34c-.31 0-.61-.02-.9-.07-.01 0-.03 0-.04-.01-2.1-.33-3.69-1.74-3.69-3.43 0-1.57 1.36-2.89 3.24-3.34.02 0 .04-.01.06-.01.42-.1.87-.15 1.33-.15.69 0 1.36.11 1.99.34.95.35 2 .35 2.96 0a5.7 5.7 0 0 1 1.99-.34c.69 0 1.36.11 1.99.34.95.35 2 .35 2.96 0a5.7 5.7 0 0 1 1.99-.34c.69 0 1.36.11 1.99.34.95.35 2 .35 2.96 0a5.7 5.7 0 0 1 1.99-.34c.7 0 1.36.11 1.99.34.95.35 2 .35 2.96 0a5.7 5.7 0 0 1 1.99-.34c.69 0 1.36.11 1.99.34.95.35 2 .35 2.96 0a5.7 5.7 0 0 1 1.99-.34c.69 0 1.36.11 1.99.34.95.35 2 .35 2.96 0a5.7 5.7 0 0 1 1.99-.34c.46 0 .9.05 1.32.15.03.01.05.01.08.02 1.87.45 3.23 1.78 3.23 3.34.01 1.68-1.58 3.09-3.69 3.42zm-13.38-9.64c.65 0 1.26-.25 1.71-.71l2.86-2.86c.46-.46.71-1.07.71-1.71 0-.65-.25-1.26-.71-1.71-.46-.46-1.07-.71-1.71-.71-.65 0-1.26.25-1.71.71l-2.86 2.86c-.46.46-.71 1.07-.71 1.71 0 .65.25 1.26.71 1.71.46.45 1.06.71 1.71.71zm-.59-3.02l2.86-2.86c.16-.16.37-.25.59-.25.22 0 .44.09.59.25.16.16.25.37.25.59 0 .22-.09.44-.25.59l-2.86 2.86c-.16.16-.37.25-.59.25-.22 0-.44-.09-.59-.25a.834.834 0 0 1-.25-.59c0-.22.09-.43.25-.59zm-9.75 3.48c.65 0 1.26-.25 1.71-.71l4-4c.46-.46.71-1.07.71-1.71 0-.64-.25-1.26-.71-1.71-.46-.46-1.07-.71-1.71-.71-.65 0-1.26.25-1.71.71l-4 4c-.46.46-.71 1.07-.71 1.71 0 .64.25 1.26.71 1.71.45.46 1.06.71 1.71.71zm-.6-3.02l4-4c.16-.16.37-.25.59-.25.22 0 .44.09.59.25.15.16.25.37.25.59 0 .22-.09.44-.25.59l-4 4c-.16.16-.37.25-.59.25-.22 0-.44-.09-.59-.25a.834.834 0 0 1-.25-.59c0-.22.1-.43.25-.59z" fill="#DD9279"/></svg>