<svg width="16" height="16" viewBox="0 0 16 16" fill="none" xmlns="http://www.w3.org/2000/svg">
<path d="M9.43 0.0600586C5.84 0.0600586 2.91999 2.98006 2.91999 6.57006C2.91999 7.86006 3.3 9.07006 3.95 10.0801L0.199997 13.8301C0.109997 13.9201 0.0599976 14.0401 0.0599976 14.1601C0.0599976 14.2801 0.109997 14.4001 0.199997 14.4901L1.52 15.8101C1.61 15.9001 1.72999 15.9501 1.84999 15.9501C1.96999 15.9501 2.09 15.9001 2.18 15.8101L5.93 12.0601C6.94 12.7101 8.15 13.0901 9.44 13.0901C13.03 13.0901 15.95 10.1701 15.95 6.58006C15.95 2.99006 13.02 0.0600586 9.43 0.0600586ZM1.84999 14.8201L1.18999 14.1601L3.18999 12.1601L3.84999 12.8201L1.84999 14.8201ZM4.50999 12.1601L3.84999 11.5001L4.50999 10.8401C4.70999 11.0701 4.92999 11.2901 5.16999 11.5001L4.50999 12.1601ZM9.43 12.1601C6.35 12.1601 3.84999 9.66006 3.84999 6.58006C3.84999 3.50006 6.35 1.00006 9.43 1.00006C12.51 1.00006 15.01 3.50006 15.01 6.58006C15.01 9.66006 12.51 12.1601 9.43 12.1601Z" fill="#DD9279"/>
</svg>
