<svg width="30" height="30" viewBox="0 0 30 30" fill="none" xmlns="http://www.w3.org/2000/svg">
<path fill-rule="evenodd" clip-rule="evenodd" d="M11.1214 10.7072C10.7309 10.3167 10.0977 10.3167 9.70717 10.7072C9.31665 11.0977 9.31665 11.7309 9.70717 12.1214L13.2929 15.7072L9.70708 19.293C9.31655 19.6835 9.31655 20.3167 9.70708 20.7072C10.0976 21.0977 10.7308 21.0977 11.1213 20.7072L14.7071 17.1214L18.1925 20.6067C18.583 20.9972 19.2161 20.9972 19.6067 20.6067C19.9972 20.2162 19.9972 19.583 19.6067 19.1925L16.1213 15.7072L19.6066 12.2219C19.9971 11.8314 19.9971 11.1982 19.6066 10.8077C19.216 10.4172 18.5829 10.4172 18.1924 10.8077L14.7071 14.2929L11.1214 10.7072Z" fill="#DD9279"/>
</svg>
