<svg width="30" height="30" viewBox="0 0 30 30" fill="none" xmlns="http://www.w3.org/2000/svg">
<path d="M22.1998 8.00002H19.8998V6.90002C19.8998 6.60002 19.6998 6.40002 19.3998 6.40002C19.0998 6.40002 18.8998 6.60002 18.8998 6.90002V8.00002H15.6998V6.90002C15.6998 6.60002 15.4998 6.40002 15.1998 6.40002C14.8998 6.40002 14.6998 6.60002 14.6998 6.90002V8.00002H11.4998V6.90002C11.4998 6.60002 11.2998 6.40002 10.9998 6.40002C10.6998 6.40002 10.4998 6.60002 10.4998 6.90002V8.00002H7.7998C6.9998 8.00002 6.2998 8.60002 6.2998 9.40002V22.2C6.2998 23 6.8998 23.6 7.6998 23.6H22.0998C22.8998 23.6 23.4998 23 23.4998 22.2V9.40002C23.6998 8.60002 22.9998 8.00002 22.1998 8.00002ZM22.5998 22.2C22.5998 22.4 22.3998 22.6 22.1998 22.6H7.7998C7.5998 22.6 7.3998 22.4 7.3998 22.2V9.40002C7.3998 9.20002 7.5998 9.00002 7.7998 9.00002H10.0998V10.1C10.0998 10.4 10.2998 10.6 10.5998 10.6C10.8998 10.6 11.0998 10.4 11.0998 10.1V9.00002H14.2998V10.1C14.2998 10.4 14.4998 10.6 14.7998 10.6C15.0998 10.6 15.2998 10.4 15.2998 10.1V9.00002H18.4998V10.1C18.4998 10.4 18.6998 10.6 18.9998 10.6C19.2998 10.6 19.4998 10.4 19.4998 10.1V9.00002H21.7998C21.9998 9.00002 22.1998 9.20002 22.1998 9.40002V22.2H22.5998Z" fill="#010002"/>
<path d="M12.2996 12.8H10.0996V14.4H12.2996V12.8Z" fill="#010002"/>
<path d="M12.2996 15.5H10.0996V17.1H12.2996V15.5Z" fill="#010002"/>
<path d="M12.2996 18.2001H10.0996V19.8001H12.2996V18.2001Z" fill="#010002"/>
<path d="M16.0999 18.2001H13.8999V19.8001H16.0999V18.2001Z" fill="#010002"/>
<path d="M16.0999 15.5H13.8999V17.1H16.0999V15.5Z" fill="#010002"/>
<path d="M16.0999 12.8H13.8999V14.4H16.0999V12.8Z" fill="#010002"/>
<path d="M19.8997 18.2001H17.6997V19.8001H19.8997V18.2001Z" fill="#010002"/>
<path d="M19.8997 15.5H17.6997V17.1H19.8997V15.5Z" fill="#010002"/>
<path d="M19.8997 12.8H17.6997V14.4H19.8997V12.8Z" fill="#010002"/>
</svg>
